<?xml version="1.0" encoding="UTF-8"?>
<svg version="1.1" xmlns="http://www.w3.org/2000/svg" width="500" height="500">
<path d="M0 0 C165 0 330 0 500 0 C500 165 500 330 500 500 C335 500 170 500 0 500 C0 335 0 170 0 0 Z " fill="#CCBAAA" transform="translate(0,0)"/>
<path d="M0 0 C165 0 330 0 500 0 C500 165 500 330 500 500 C335 500 170 500 0 500 C0 335 0 170 0 0 Z M134.23828125 40.0859375 C124.64410499 45.45698695 115.28758923 47.66981738 104.50952148 49.78393555 C94.18351889 51.84274785 84.6446894 54.79812175 75 59 C74.36465332 59.27424805 73.72930664 59.54849609 73.07470703 59.83105469 C50.17629874 69.93702239 31.51567264 86.66720557 22 110 C18.3751257 121.04378369 17.16910902 132.15328251 22 143 C26.21656956 149.86998716 32.01651689 152.49679883 39.3125 155.25 C44.2399504 156.2521933 48.99068181 156.16305195 54 156 C53.67 156.66 53.34 157.32 53 158 C51.1270932 194.30557791 63.32535497 227.62981888 87.515625 254.69580078 C95.415425 263.2913218 104.18633075 270.66491468 114 277 C114.66 277 115.32 277 116 277 C115.67386719 277.72703125 115.34773438 278.4540625 115.01171875 279.203125 C96.94704466 320.76786185 109.16331712 376.84852973 125.04248047 417.68066406 C125.37779785 418.48987305 125.71311523 419.29908203 126.05859375 420.1328125 C130.39825175 430.62302579 130.39825175 430.62302579 129.171875 434.86328125 C127.625 437.375 127.625 437.375 125.8125 439.67578125 C121.43140338 445.2937823 119.22707849 452.82860886 119.62109375 459.93359375 C120.42135606 464.29791088 122.13573412 467.60603756 125.71875 470.28515625 C130.06965306 472.85698242 133.67954892 474.135079 138.6875 474.0625 C139.89986328 474.04896484 139.89986328 474.04896484 141.13671875 474.03515625 C141.75160156 474.02355469 142.36648437 474.01195312 143 474 C142.87625 474.7425 142.7525 475.485 142.625 476.25 C142.75380072 479.18962356 142.75380072 479.18962356 145.1875 481.3125 C149.42667489 483.85803325 154.1056237 483.20393558 158.87890625 482.9453125 C162 483 162 483 164.36206055 483.97753906 C167.18396368 485.07130402 169.3131621 485.31095521 172.328125 485.4140625 C173.95814453 485.47267456 173.95814453 485.47267456 175.62109375 485.5324707 C176.81863281 485.56300537 178.01617187 485.59354004 179.25 485.625 C181.14685547 485.67756958 181.14685547 485.67756958 183.08203125 485.73120117 C187.72092183 485.84862698 192.36024974 485.92557852 197 486 C197.9794458 486.01673767 198.9588916 486.03347534 199.96801758 486.05072021 C206.53566692 486.160011 213.10287027 486.23816611 219.67126465 486.28509521 C221.88560235 486.3033254 224.09989622 486.32807737 226.31408691 486.35943604 C229.45960977 486.40139444 232.60423152 486.41685504 235.75 486.42578125 C236.6957489 486.44323898 237.6414978 486.46069672 238.61590576 486.47868347 C244.25966211 486.46034207 247.54399014 485.81372981 252 482 C253.92679217 479.70517721 253.92679217 479.70517721 255.375 477.25 C255.87773437 476.45078125 256.38046875 475.6515625 256.8984375 474.828125 C257.26195312 474.22484375 257.62546875 473.6215625 258 473 C258.99 474.485 258.99 474.485 260 476 C261.06402031 477.51376085 262.14936182 479.01265111 263.25 480.5 C263.81203125 481.2734375 264.3740625 482.046875 264.953125 482.84375 C269.22856835 487.34765216 273.89435484 488.39123119 279.93481445 488.68359375 C280.58594617 488.71682236 281.23707788 488.75005096 281.90794086 488.7842865 C288.950331 489.11065425 295.99454354 489.10802272 303.04296875 489.0625 C304.42767663 489.05807363 305.8123866 489.05426278 307.19709778 489.05102539 C311.52726269 489.03977264 315.85737041 489.0205248 320.1875 489 C325.22696383 488.97617672 330.26639499 488.95587538 335.30590248 488.94406128 C337.2930795 488.93769973 339.28023362 488.92512726 341.26737976 488.91235352 C347.99016335 488.89432857 354.58931333 489.138153 361.28227234 489.76623535 C365.19606876 490.10287955 369.09307409 490.1801223 373.01953125 490.203125 C373.80720383 490.20882507 374.5948764 490.21452515 375.40641785 490.22039795 C377.04721785 490.22972502 378.68803555 490.23633191 380.32885742 490.24023438 C382.82568326 490.25005184 385.32172155 490.28123401 387.81835938 490.3125 C389.42707854 490.31902247 391.03580347 490.3242759 392.64453125 490.328125 C393.74786552 490.3466452 393.74786552 490.3466452 394.87348938 490.36553955 C399.95827677 490.34378645 403.48554501 489.38530216 408 487 C426.4906332 464.60104469 433.56785522 421.77485337 432.78515625 393.71679688 C432.70516173 387.89537716 432.93400613 384.102584 436 379 C436.29777344 377.84371094 436.59554688 376.68742187 436.90234375 375.49609375 C438.15794112 371.4969491 439.87625061 369.26161703 442.5625 366.0625 C470.51167521 331.35537323 478.73048621 279.27248109 474.5 236.06640625 C473.89165104 230.99729249 473.03393689 225.99871853 472 221 C471.83371094 220.195625 471.66742188 219.39125 471.49609375 218.5625 C466.34765215 194.76525884 455.36324909 170.36073018 434.40234375 156.5078125 C427.98717574 152.56490335 421.38836683 149.52684288 414 148 C413.31550781 147.84789062 412.63101562 147.69578125 411.92578125 147.5390625 C405.2794594 146.36387789 399.56546348 147.6446608 393.6875 150.75 C386.45148136 156.80806212 384.67939544 164.86088455 383.67578125 173.9296875 C383.16846744 187.39974375 386.89044642 200.78068567 390.19921875 213.7265625 C390.39646042 214.50106247 390.59370209 215.27556244 390.79692078 216.0735321 C391.78657533 219.94860078 392.79211486 223.81836052 393.82592773 227.68188477 C400.6806405 253.76205794 398.88423689 279.4001877 397 306 C396.15179688 305.05640625 395.30359375 304.1128125 394.4296875 303.140625 C368.78032054 274.92742962 334.93773877 252.29980837 296 249 C296.70125 248.21238281 297.4025 247.42476562 298.125 246.61328125 C313.79648455 228.73509199 325.02698365 207.82850418 328 184 C329.0725 183.95875 330.145 183.9175 331.25 183.875 C339.25171552 182.89083178 347.06498687 178.31133378 353 173 C358.57158689 165.47043942 360.98038044 156.30583337 360 147 C356.98491432 126.98388497 348.21234711 111.16796527 335 96 C334.20722656 95.07960937 334.20722656 95.07960937 333.3984375 94.140625 C319.28033388 78.93651341 297.7954512 67.1676128 277.875 62.1875 C271.96017184 60.56382168 268.42252582 58.34690485 263.86328125 54.33984375 C227.07037038 24.27305847 176.12417193 16.37778599 134.23828125 40.0859375 Z " fill="#FFFFFF" transform="translate(0,0)"/>
<path d="M0 0 C33.19601242 0.07469265 63.27955455 16.95488223 86.93310547 39.38061523 C88.36976563 40.7205957 88.36976563 40.7205957 89.83544922 42.08764648 C113.44267873 64.54870851 132.82520684 100.41449676 134.13623047 133.40405273 C134.62656457 160.24599008 127.56283756 197.12256744 111.93310547 219.38061523 C106.61788173 221.28831804 100.49087909 220.57100389 94.93310547 220.56811523 C93.01111328 220.56908203 93.01111328 220.56908203 91.05029297 220.57006836 C80.84859743 220.51516687 70.72964552 219.96192417 60.56201172 219.09228516 C50.83150096 218.27240494 41.23312107 218.04854834 31.49560547 218.88061523 C21.65034609 219.64891864 11.80125359 219.55001003 1.93310547 219.38061523 C1.11261719 219.36804688 0.29212891 219.35547852 -0.55322266 219.3425293 C-2.7678842 219.29727558 -4.97868705 219.2214694 -7.19189453 219.13061523 C-8.43197266 219.08420898 -9.67205078 219.03780273 -10.94970703 218.98999023 C-14.6038644 218.27564368 -15.79589653 217.2704871 -18.06689453 214.38061523 C-20.26031181 210.32279327 -20.75109236 206.94193412 -20.06689453 202.38061523 C-18.39093214 199.94817107 -16.58551741 197.77608562 -14.59814453 195.59155273 C-12.95568783 193.49613202 -12.95568783 193.49613202 -12.49658203 191.12280273 C-13.40698322 186.7453943 -16.04825647 183.6671171 -18.69189453 180.13061523 C-19.79766529 178.60218785 -20.9031374 177.07354436 -22.00830078 175.54467773 C-23.69516586 173.24129084 -25.39068566 170.94515048 -27.09423828 168.65405273 C-34.46249839 158.34223833 -34.89391595 147.55296275 -33.06689453 135.38061523 C-29.10304963 114.55435986 -18.79180209 92.17888078 -1.31298828 79.36108398 C4.82593743 75.60087762 10.99753178 73.28449821 17.93310547 71.38061523 C17.93310547 69.73061523 17.93310547 68.08061523 17.93310547 66.38061523 C13.37230031 63.75252796 9.94526011 64.19062254 4.93310547 65.38061523 C-12.45285141 71.63395134 -24.65732922 87.27800031 -32.41992188 103.41357422 C-40.64387394 121.25080499 -47.54749948 142.62198988 -41.25439453 162.13061523 C-40.12751638 165.05570321 -38.9183336 167.64472356 -37.37939453 170.38061523 C-34.3088427 177.39901943 -34.57574457 184.29723865 -37.06689453 191.38061523 C-37.68253303 194.70573965 -38.25016348 198.02638874 -38.74658203 201.37084961 C-39.71713692 207.12249023 -41.52166631 211.85978123 -45.770401 216.0677948 C-48.9593535 217.89080103 -51.29997091 217.67627134 -54.95922852 217.56933594 C-55.64428467 217.55347946 -56.32934082 217.53762299 -57.03515625 217.52128601 C-59.2951411 217.46492193 -61.5537172 217.38615006 -63.81298828 217.30639648 C-65.38709963 217.26096837 -66.96124328 217.21664748 -68.53541565 217.17338562 C-71.83348084 217.07941517 -75.1309845 216.97485618 -78.4284668 216.86230469 C-82.64917074 216.71868732 -86.87014732 216.59695368 -91.09173489 216.48261738 C-94.34250749 216.39289676 -97.59293775 216.29374928 -100.84333992 216.1915493 C-102.39935176 216.14333369 -103.95543986 216.097516 -105.51159477 216.05416298 C-107.68987031 215.99161866 -109.86739833 215.91692744 -112.04516602 215.83886719 C-113.28330551 215.79873001 -114.52144501 215.75859283 -115.79710388 215.71723938 C-118.98442115 215.38910585 -121.23776711 214.86274448 -124.06689453 213.38061523 C-126.00439453 210.63061523 -126.00439453 210.63061523 -127.06689453 207.38061523 C-125.76286581 200.42579539 -121.41257985 195.12083062 -116.07861328 190.70092773 C-113.1877093 188.80359658 -110.20008822 187.85006771 -106.88720703 186.92358398 C-105.06489232 186.53710856 -105.06489232 186.53710856 -104.06689453 185.38061523 C-103.82260304 179.14381319 -104.43304834 173.11515582 -105.20361328 166.93139648 C-105.32493118 165.95575241 -105.44624908 164.98010834 -105.57124329 163.97489929 C-105.82962951 161.92476717 -106.09117168 159.87503058 -106.35571289 157.82568359 C-106.62203338 155.73311886 -106.8788365 153.63932138 -107.1262207 151.54443359 C-107.48539034 148.50374966 -107.8725028 145.46779099 -108.26611328 142.43139648 C-108.37154953 141.49797928 -108.47698578 140.56456207 -108.58561707 139.6028595 C-109.35772879 133.96268741 -110.37057641 131.01875768 -115.06689453 127.38061523 C-117.3208978 125.88063934 -119.56232916 124.45873132 -121.87939453 123.06811523 C-132.0685357 116.67773155 -137.96779762 109.5768555 -144.03173828 99.14331055 C-145.82636015 96.08737425 -147.70126619 93.08102172 -149.56689453 90.06811523 C-150.7335612 88.1722819 -151.90022786 86.27644857 -153.06689453 84.38061523 C-155.59105658 86.90477728 -155.39214805 87.87846319 -155.44189453 91.38061523 C-155.13314934 104.55374326 -146.78500095 115.29810116 -137.71044922 124.28076172 C-135.49650461 126.03936327 -133.76112101 127.08682494 -131.25048828 128.27368164 C-120.54281138 133.5182788 -120.54281138 133.5182788 -118.00952148 138.4312439 C-116.22040664 144.04608266 -115.91975357 149.84565836 -115.56689453 155.69311523 C-115.40566889 157.43659049 -115.23774435 159.1794598 -115.06298828 160.92163086 C-114.47556905 167.06564589 -113.96286899 173.20256899 -114.06689453 179.38061523 C-114.69595703 179.63713867 -115.32501953 179.89366211 -115.97314453 180.15795898 C-124.75122785 184.08430047 -130.66071413 189.56543251 -134.56689453 198.44311523 C-136.16590556 202.92455404 -136.41686309 206.65603974 -136.06689453 211.38061523 C-134.74689453 212.04061523 -133.42689453 212.70061523 -132.06689453 213.38061523 C-135.69689453 213.05061523 -139.32689453 212.72061523 -143.06689453 212.38061523 C-143.72689453 210.07061523 -144.38689453 207.76061523 -145.06689453 205.38061523 C-145.75396484 205.25944336 -146.44103516 205.13827148 -147.14892578 205.01342773 C-148.50050781 204.76206055 -148.50050781 204.76206055 -149.87939453 204.50561523 C-150.77271484 204.34319336 -151.66603516 204.18077148 -152.58642578 204.01342773 C-155.06689453 203.38061523 -155.06689453 203.38061523 -158.06689453 201.38061523 C-159.36829219 193.716829 -156.1247519 186.81509189 -152.06689453 180.38061523 C-150.43170207 179.32993765 -148.76834113 178.32022007 -147.06689453 177.38061523 C-145.66511398 174.31094924 -145.66511398 174.31094924 -147.50830078 171.22045898 C-148.21077973 169.91721366 -148.91818128 168.61661466 -149.62939453 167.31811523 C-161.4691069 144.50777851 -166.93821524 117.73065629 -170.06689453 92.38061523 C-170.1684082 91.60556641 -170.26992187 90.83051758 -170.37451172 90.03198242 C-173.27262096 67.47792722 -174.30563007 43.95825593 -166.06689453 22.38061523 C-161.7250597 23.76658672 -157.5733305 25.41315809 -153.37939453 27.19311523 C-147.3856732 29.65874195 -141.33506009 31.55260207 -135.06689453 33.19311523 C-134.27839111 33.39976807 -133.4898877 33.6064209 -132.67749023 33.81933594 C-113.45031 38.67872846 -89.26486683 38.5124703 -70.06689453 33.38061523 C-68.91785645 33.09057617 -68.91785645 33.09057617 -67.74560547 32.79467773 C-46.58109083 27.3674496 -18.59357501 0.35915392 0 0 Z " fill="#CCBAAA" transform="translate(289.06689453125,259.619384765625)"/>
<path d="M0 0 C5.08492064 3.73717576 9.6860722 6.02920426 15.78125 7.71875 C34.29368504 13.21563097 51.04818752 23.83642697 65.46875 36.53125 C66.40074219 37.33755859 66.40074219 37.33755859 67.3515625 38.16015625 C82.81450557 52.508329 93.27564798 74.23127078 94.71875 95.15625 C94.56274707 103.29960313 92.62696973 111.46539097 87.33203125 117.78515625 C80.79526679 123.91080345 71.52279803 128.81175407 62.46875 128.53125 C62.33919922 129.56958984 62.33919922 129.56958984 62.20703125 130.62890625 C58.7398471 154.77195915 46.88160386 175.78844673 30.46875 193.53125 C31.64308594 193.67820313 32.81742187 193.82515625 34.02734375 193.9765625 C51.74232762 196.37007837 66.78401411 202.10983405 82.46875 210.53125 C83.07315918 210.84819824 83.67756836 211.16514648 84.30029297 211.49169922 C102.685051 221.16815167 117.77198802 235.07253051 131.46875 250.53125 C133.63458579 219.95610014 133.66276935 192.55159719 125.96875 162.65625 C114.26882654 116.69925161 114.26882654 116.69925161 122.79296875 101.109375 C126.63089636 95.58920615 130.42351807 93.29255798 136.96875 91.65625 C149.43121541 90.5663766 162.65751421 96.25743406 172.32421875 103.7421875 C174.79293577 105.9307929 177.13847524 108.19677655 179.46875 110.53125 C180.09136719 111.08296875 180.71398437 111.6346875 181.35546875 112.203125 C201.40548071 130.40583248 208.38934442 164.20163368 209.63720703 190.01611328 C210.80781449 227.19636929 204.29132112 263.64669438 186.46875 296.53125 C185.96472656 297.46710938 185.46070313 298.40296875 184.94140625 299.3671875 C182.26711903 304.06385813 179.21935301 308.09842302 175.71875 312.21875 C172.19725363 316.41269291 170.396288 319.17214156 169.46875 324.53125 C169.12585938 325.53929687 168.78296875 326.54734375 168.4296875 327.5859375 C167.04813803 332.33981737 167.38441899 337.00277707 167.53125 341.90625 C167.8528482 370.66091262 158.55281115 405.90772553 143.46875 430.53125 C138.69754527 434.96980101 133.64743038 434.68088396 127.40625 434.6640625 C126.22554932 434.66549759 126.22554932 434.66549759 125.02099609 434.66696167 C123.35335205 434.66764155 121.68570535 434.66580064 120.01806641 434.66162109 C117.5054707 434.65632737 114.99305848 434.66154269 112.48046875 434.66796875 C110.85156211 434.66730682 109.22265559 434.6660233 107.59375 434.6640625 C106.49148071 434.66709885 106.49148071 434.66709885 105.36694336 434.67019653 C101.1512677 434.65191677 97.01166032 434.42089932 92.8137207 434.02685547 C85.81069514 433.40732751 78.85002274 433.42358684 71.82421875 433.46875 C70.44241003 433.47317359 69.06059923 433.47698523 67.67878723 433.48022461 C62.6082307 433.4934215 57.5377388 433.51759175 52.46722412 433.54162598 C48.16625105 433.56159414 43.86530282 433.57713317 39.56429482 433.58718872 C37.58224844 433.59352454 35.60022501 433.60609551 33.61820984 433.61889648 C27.20638391 433.63595675 20.80692159 433.5416204 14.40356445 433.21484375 C12.6233062 433.12867798 12.6233062 433.12867798 10.80708313 433.04077148 C6.11729575 432.3249809 2.6980314 430.8262182 -0.578125 427.375 C-1.14015625 426.6015625 -1.7021875 425.828125 -2.28125 425.03125 C-2.85359375 424.2578125 -3.4259375 423.484375 -4.015625 422.6875 C-5.21187197 420.98562287 -6.37734125 419.26211313 -7.53125 417.53125 C-7.89476562 418.13453125 -8.25828125 418.7378125 -8.6328125 419.359375 C-9.13554687 420.15859375 -9.63828125 420.9578125 -10.15625 421.78125 C-10.64351562 422.57015625 -11.13078125 423.3590625 -11.6328125 424.171875 C-14.41127422 427.62494266 -17.23778859 430.16512788 -21.7562561 430.88644409 C-24.43985217 431.01073759 -27.09519813 431.00661378 -29.78125 430.95703125 C-30.78028854 430.95419632 -31.77932709 430.95136139 -32.80863953 430.94844055 C-36.05000741 430.93368889 -39.2901858 430.88964804 -42.53125 430.84375 C-44.75495455 430.82544824 -46.97866943 430.80836261 -49.20239258 430.79248047 C-55.64597915 430.73803634 -62.08840394 430.64147141 -68.53125 430.53125 C-69.85186432 430.51001068 -69.85186432 430.51001068 -71.19915771 430.48834229 C-76.2067337 430.40619417 -81.21242627 430.29549238 -86.21875 430.15625 C-87.40791016 430.12571533 -88.59707031 430.09518066 -89.82226562 430.0637207 C-95.16222367 429.87113596 -99.48097405 429.37872726 -104.53125 427.53125 C-107.53287442 427.43753379 -107.53287442 427.43753379 -110.53125 427.65625 C-117.07143064 427.76199919 -117.07143064 427.76199919 -120.28125 425.84375 C-122.53125 423.53125 -122.53125 423.53125 -122.90625 420.78125 C-122.7825 420.03875 -122.65875 419.29625 -122.53125 418.53125 C-123.830625 418.61375 -125.13 418.69625 -126.46875 418.78125 C-131.81906826 418.77281101 -135.99829476 417.34731438 -140.53125 414.53125 C-144.72322548 410.23447513 -145.9986295 406.4265495 -145.94921875 400.3984375 C-145.00626477 393.92994944 -142.10357931 386.23912628 -138.33666992 380.80932617 C-136.71258817 378.46209113 -135.41755367 376.5085964 -135.75732422 373.58789062 C-136.48734711 371.34609645 -137.37545116 369.24341011 -138.34375 367.09375 C-139.03182654 365.40391007 -139.71249468 363.71103947 -140.38671875 362.015625 C-140.74427246 361.12423828 -141.10182617 360.23285156 -141.47021484 359.31445312 C-156.80680276 319.08502324 -168.41710699 264.32129795 -150.53125 223.53125 C-150.20125 222.87125 -149.87125 222.21125 -149.53125 221.53125 C-150.2221875 221.30050781 -150.913125 221.06976563 -151.625 220.83203125 C-155.1560375 219.25160721 -158.0251914 217.1114733 -161.03125 214.71875 C-161.64073486 214.23374023 -162.25021973 213.74873047 -162.87817383 213.24902344 C-190.3554744 190.96073677 -208.23633318 159.96779795 -212.35693359 124.66943359 C-212.69670587 120.50175064 -212.67465926 116.3351517 -212.65625 112.15625 C-212.66205078 110.80466797 -212.66205078 110.80466797 -212.66796875 109.42578125 C-212.66667969 108.56597656 -212.66539062 107.70617187 -212.6640625 106.8203125 C-212.66293457 106.04381348 -212.66180664 105.26731445 -212.66064453 104.46728516 C-212.53125 102.53125 -212.53125 102.53125 -211.53125 100.53125 C-212.18609375 100.57765625 -212.8409375 100.6240625 -213.515625 100.671875 C-222.97937869 101.04614774 -231.60599121 99.30769671 -239.09375 93.21875 C-244.81829166 87.67235798 -246.45417001 81.01034983 -246.84375 73.21875 C-246.5589041 54.07710557 -236.76658966 37.47249448 -223.45849609 24.31542969 C-204.74382242 6.99001352 -180.30255163 -2.26355441 -155.59375 -6.71875 C-144.8693971 -8.69013205 -136.21459187 -12.70062571 -126.65234375 -17.80859375 C-83.83334597 -40.58193332 -37.10692427 -27.46145041 0 0 Z M-143.0078125 3.3125 C-146.81788158 6.10081449 -150.29307508 5.87048692 -154.84375 5.46875 C-177.44376129 4.53389948 -200.2811124 18.74724675 -216.90625 32.96875 C-226.92321283 42.33631491 -234.62305097 55.35715833 -235.75 69.22265625 C-235.94210285 75.10580602 -235.63028242 79.46949704 -232.53125 84.53125 C-227.37327203 88.70153006 -223.36120689 89.60673033 -216.890625 89.84765625 C-215.82070312 89.88955078 -214.75078125 89.93144531 -213.6484375 89.97460938 C-212.53726563 90.01392578 -211.42609375 90.05324219 -210.28125 90.09375 C-208.59128906 90.15852539 -208.59128906 90.15852539 -206.8671875 90.22460938 C-204.08866046 90.33057015 -201.31004609 90.43264142 -198.53125 90.53125 C-198.85480469 91.58183594 -199.17835938 92.63242188 -199.51171875 93.71484375 C-200.98060076 99.62543792 -200.87274185 105.53487405 -200.84375 111.59375 C-200.83883545 112.79805664 -200.8339209 114.00236328 -200.82885742 115.24316406 C-200.71304746 124.04947223 -200.00564052 132.04049864 -197.53125 140.53125 C-197.02078125 142.34689453 -197.02078125 142.34689453 -196.5 144.19921875 C-186.71584456 176.09688765 -164.62912171 201.71661909 -135.42236328 217.55859375 C-108.85547375 231.22274142 -78.45456111 233.83889161 -49.53125 227.53125 C-48.83789551 227.38091309 -48.14454102 227.23057617 -47.43017578 227.07568359 C-28.65401865 222.77160378 -10.43009493 213.69064436 4.46875 201.53125 C5.05446777 201.06074219 5.64018555 200.59023438 6.24365234 200.10546875 C17.61419835 190.90955104 27.539455 180.91372727 35.46875 168.53125 C36.05398438 167.63019531 36.63921875 166.72914063 37.2421875 165.80078125 C45.06788538 153.13955389 51.97416108 136.66550398 51.46875 121.53125 C52.14292969 121.40105469 52.81710937 121.27085937 53.51171875 121.13671875 C65.03494094 118.77727431 74.05052163 116.76221262 81.96875 107.65625 C86.26475672 98.81266859 83.92426703 87.33902432 81.03125 78.40625 C76.54719801 65.61829679 69.02075046 55.09957867 59.46875 45.53125 C58.74558594 44.79648438 58.02242188 44.06171875 57.27734375 43.3046875 C44.72356389 31.2819474 26.77770236 19.72416354 9.46875 16.53125 C8.375625 16.62664062 7.2825 16.72203125 6.15625 16.8203125 C1.00578826 16.41656868 -1.32554801 14.05347087 -5.15625 10.78125 C-19.0147504 -0.39217558 -34.46300894 -9.27168942 -51.53125 -14.46875 C-53.12453125 -14.97341797 -53.12453125 -14.97341797 -54.75 -15.48828125 C-83.5540475 -23.14372591 -119.73320387 -15.49830388 -143.0078125 3.3125 Z M11.4453125 209.41015625 C-6.38818197 228.54768094 -41.71657947 239.40051173 -66.94604492 240.70825195 C-91.8780471 241.13673073 -115.34608728 239.70519993 -137.8828125 227.75390625 C-140.54854178 226.1566008 -140.54854178 226.1566008 -143.53125 227.53125 C-144.40133496 230.24651512 -145.07219239 232.815972 -145.65625 235.59375 C-145.82511719 236.33302734 -145.99398437 237.07230469 -146.16796875 237.83398438 C-155.2912626 278.88880668 -146.45740242 339.72940381 -124.03125 375.65625 C-122.53125 378.53125 -122.53125 378.53125 -123.03125 380.84375 C-124.53125 382.53125 -124.53125 382.53125 -126.421875 383.25390625 C-131.08496515 386.0776664 -132.77316512 392.59597251 -134.53125 397.53125 C-134.9533406 400.43850668 -134.87660213 402.59575688 -134.53125 405.53125 C-129.90684575 407.60751313 -125.4303849 409.23147952 -120.53125 410.53125 C-120.20125 412.51125 -119.87125 414.49125 -119.53125 416.53125 C-115.90125 416.86125 -112.27125 417.19125 -108.53125 417.53125 C-109.85125 416.87125 -111.17125 416.21125 -112.53125 415.53125 C-113.19591784 406.55823412 -110.6179964 399.67921829 -104.90625 392.71875 C-100.72189563 388.26596535 -96.09233167 385.8916057 -90.53125 383.53125 C-90.59183594 382.84554932 -90.65242188 382.15984863 -90.71484375 381.45336914 C-91.10621604 376.90705319 -91.48983629 372.37020811 -91.71484375 367.81201172 C-91.91908972 352.25360844 -91.91908972 352.25360844 -97.23974609 338.18115234 C-101.18508624 334.67979397 -105.72612055 332.55795311 -110.53613281 330.48046875 C-120.02036291 325.96814782 -126.98989954 313.92163611 -130.73828125 304.49609375 C-131.54795497 301.4687915 -131.7985269 298.90836893 -131.78125 295.78125 C-131.78640625 294.83765625 -131.7915625 293.8940625 -131.796875 292.921875 C-131.53125 290.53125 -131.53125 290.53125 -129.53125 288.53125 C-128.32216013 290.48911633 -127.11402563 292.44757266 -125.90625 294.40625 C-125.53943115 294.99833252 -125.1726123 295.59041504 -124.79467773 296.20043945 C-122.65241094 299.66835945 -120.60232613 303.1712085 -118.59375 306.71875 C-112.47529813 316.87768895 -104.23738346 324.18480277 -93.96875 329.9765625 C-93.164375 330.44835937 -92.36 330.92015625 -91.53125 331.40625 C-90.809375 331.79554688 -90.0875 332.18484375 -89.34375 332.5859375 C-84.96781408 337.2825239 -85.04991148 346.2464056 -84.2421875 352.44140625 C-84.07996201 353.65901894 -84.07996201 353.65901894 -83.91445923 354.90122986 C-83.68901583 356.60259008 -83.46559757 358.30421981 -83.24414062 360.00610352 C-82.90652987 362.59160665 -82.55911292 365.1756665 -82.2109375 367.75976562 C-81.99159433 369.42440111 -81.77282485 371.08911232 -81.5546875 372.75390625 C-81.45159271 373.51558609 -81.34849792 374.27726593 -81.24227905 375.06202698 C-80.61930916 379.92570079 -80.27212248 384.62691013 -80.53125 389.53125 C-82.86060578 391.86060578 -84.0624106 391.99854392 -87.21875 392.71875 C-94.42815361 394.79938596 -98.40962384 399.20466742 -102.09375 405.59375 C-103.47977567 408.63710849 -103.55724775 409.39346195 -102.90625 412.84375 C-101.13927563 416.76988983 -101.13927563 416.76988983 -97.84176636 419.1932373 C-94.74656183 419.6460445 -91.68884635 419.8035867 -88.56298828 419.93945312 C-87.86978485 419.97035034 -87.17658142 420.00124756 -86.46237183 420.03308105 C-79.24242012 420.34682712 -72.01985324 420.5986664 -64.79736328 420.84570312 C-61.37248924 420.96489714 -57.94926948 421.10374897 -54.52587891 421.25976562 C-50.38527504 421.44826378 -46.24475147 421.60151698 -42.10186386 421.72996521 C-40.52658581 421.78470152 -38.95168472 421.8517649 -37.37747574 421.93153381 C-28.95763409 422.65566026 -28.95763409 422.65566026 -21.2388916 420.05488586 C-18.23950098 416.67334477 -16.68083129 413.1619522 -15.78125 408.71875 C-15.45253906 407.17574219 -15.45253906 407.17574219 -15.1171875 405.6015625 C-14.92382812 404.58835937 -14.73046875 403.57515625 -14.53125 402.53125 C-14.33789062 401.60054687 -14.14453125 400.66984375 -13.9453125 399.7109375 C-13.45308527 397.32113862 -12.98816886 394.92799713 -12.53125 392.53125 C-12.33402344 391.74234375 -12.13679687 390.9534375 -11.93359375 390.140625 C-10.81372468 382.87778481 -12.74250393 374.75332359 -16.53125 368.5078125 C-23.24887668 355.23000351 -19.90332135 337.07480936 -15.53125 323.53125 C-11.14822203 311.12958771 -5.74705998 299.83431982 2.46875 289.53125 C3.09136719 288.7165625 3.71398437 287.901875 4.35546875 287.0625 C11.14639304 278.74824469 20.98493538 271.29014859 31.46875 268.53125 C35.48534713 268.14503874 38.01915351 268.40842139 41.46875 270.53125 C41.46875 272.18125 41.46875 273.83125 41.46875 275.53125 C40.1075 275.840625 40.1075 275.840625 38.71875 276.15625 C22.67132682 280.85701033 10.40600604 292.02944861 2.36572266 306.51904297 C-6.69003541 323.88431623 -14.05305434 344.09151481 -8.58569336 363.60693359 C-6.86740979 368.37229609 -4.12947989 372.21649653 -1.15625 376.28125 C-0.59164062 377.07917969 -0.02703125 377.87710938 0.5546875 378.69921875 C2.65840441 381.66487523 4.7602402 384.62308984 6.99707031 387.49023438 C8.94084082 390.02439606 10.36950709 392.033576 11 395.1953125 C10.31622427 398.2019146 9.0349843 399.63503214 6.96875 401.90625 C4.52578376 404.90421059 3.52826074 406.22287614 2.78125 410.09375 C3.62686509 414.32182543 5.0676261 417.93832737 7.46875 421.53125 C20.09745666 427.84560333 44.30839785 423.94751352 58.08837891 422.77001953 C67.93129512 422.07477382 77.65784091 422.69289293 87.46875 423.53125 C97.79632698 424.33707195 108.05099404 424.74988628 118.40625 424.78125 C119.63794922 424.79027344 120.86964844 424.79929687 122.13867188 424.80859375 C123.8624707 424.80279297 123.8624707 424.80279297 125.62109375 424.796875 C126.63163818 424.79461914 127.64218262 424.79236328 128.68334961 424.79003906 C131.67182508 424.51238248 133.80465699 423.90562972 136.46875 422.53125 C137.85207372 420.31793204 138.81614375 418.42195945 139.78125 416.03125 C140.2151001 414.9952063 140.2151001 414.9952063 140.65771484 413.93823242 C157.02273849 373.40057794 163.20639625 336.12577807 146.42822266 294.97949219 C141.6046 283.71331437 135.73979678 273.38974135 128.46875 263.53125 C127.78554688 262.60441406 127.10234375 261.67757812 126.3984375 260.72265625 C104.84353755 233.1438584 72.00059604 209.0781529 36.46875 204.53125 C22.68602363 202.82678358 22.68602363 202.82678358 11.4453125 209.41015625 Z " fill="#000000" transform="translate(265.53125,55.46875)"/>
<path d="M0 0 C17.11004491 6.02925392 28.88753845 18.29915513 36.93701172 34.26025391 C56.45290775 75.06812913 52.49484219 123.85667552 38.27709961 165.62158203 C32.61775925 181.49745587 25.13369368 196.36838217 12.84375 208.15625 C12.58271484 207.48271484 12.32167969 206.80917969 12.05273438 206.11523438 C3.17709257 182.71102106 3.17709257 182.71102106 -9.34375 161.15625 C-12.20795251 156.79514528 -12.20795251 156.79514528 -11.9921875 154.12890625 C-11.21875 152.21875 -11.21875 152.21875 -10.19921875 150.296875 C-4.55370417 138.70982636 -5.96098512 121.66230212 -5.90625 109.09375 C-5.885625 107.93681641 -5.865 106.77988281 -5.84375 105.58789062 C-5.76572146 87.65108061 -9.78204474 70.48182968 -14.28125 53.21875 C-14.96614683 50.55190577 -15.64828258 47.88436828 -16.32980347 45.21665955 C-16.74900702 43.57989053 -17.17066871 41.94374834 -17.59524536 40.30836487 C-19.49721953 32.95909687 -20.36422635 26.31977827 -20.40625 18.71875 C-20.426875 17.78998047 -20.4475 16.86121094 -20.46875 15.90429688 C-20.49906505 10.58021659 -20.26865992 6.69167617 -17.15625 2.15625 C-12.20000583 -2.6276912 -6.26424997 -1.67460148 0 0 Z " fill="#CCBAAA" transform="translate(415.15625,158.84375)"/>
<path d="M0 0 C14.04446443 5.08753559 20.88306774 23.01097849 26.82666016 35.67773438 C33.95045458 51.42738487 37.74352932 68.08652243 41 85 C41.24878906 86.25683594 41.49757813 87.51367188 41.75390625 88.80859375 C45.4022862 110.87746546 44.15250836 133.71129089 36.1875 154.625 C32.83682206 163.52233865 34.66239903 169.59211438 37.4765625 178.421875 C38.08331568 181.41036079 37.99468299 183.11820815 37 186 C35.69846842 187.36439404 34.36767967 188.70192147 33 190 C32.73896484 189.32646484 32.47792969 188.65292969 32.20898438 187.95898438 C23.33334257 164.55477106 23.33334257 164.55477106 10.8125 143 C7.94829749 138.63889528 7.94829749 138.63889528 8.1640625 135.97265625 C8.9375 134.0625 8.9375 134.0625 9.95703125 132.140625 C15.60254583 120.55357636 14.19526488 103.50605212 14.25 90.9375 C14.270625 89.78056641 14.29125 88.62363281 14.3125 87.43164062 C14.39052854 69.49483061 10.37420526 52.32557968 5.875 35.0625 C5.19010317 32.39565577 4.50796742 29.72811828 3.82644653 27.06040955 C3.40724298 25.42364053 2.98558129 23.78749834 2.56100464 22.15211487 C1.07767254 16.42048856 -0.13430057 11.14694747 -0.0625 5.1875 C-0.05347656 4.21167969 -0.04445313 3.23585937 -0.03515625 2.23046875 C-0.02355469 1.49441406 -0.01195312 0.75835937 0 0 Z " fill="#96806E" transform="translate(395,177)"/>
<path d="M0 0 C1.21816406 0.03480469 1.21816406 0.03480469 2.4609375 0.0703125 C3.68683594 0.09738281 3.68683594 0.09738281 4.9375 0.125 C5.56398438 0.14820313 6.19046875 0.17140625 6.8359375 0.1953125 C-0.80842059 9.33125266 -9.04461416 16.74916178 -18.51269531 23.94091797 C-19.89004205 24.98716391 -21.25864074 26.04491371 -22.625 27.10546875 C-33.34142672 35.05818542 -45.72605991 41.35988635 -58.3515625 45.6328125 C-59.00189453 45.85525635 -59.65222656 46.0777002 -60.32226562 46.30688477 C-74.08134006 50.65088798 -87.64526869 51.70964204 -101.9765625 51.5703125 C-102.80967957 51.56632446 -103.64279663 51.56233643 -104.50115967 51.55822754 C-123.7544081 51.45010735 -145.61664102 51.15716717 -161.1640625 38.1953125 C-163.63266299 35.58150021 -164.18810007 34.23533781 -164.10546875 30.66015625 C-163.87610156 28.15123208 -163.56484087 25.68206984 -163.1640625 23.1953125 C-159.03266166 21.81817889 -156.75361881 23.53741455 -153.0390625 25.3203125 C-147.26388766 27.96495068 -141.51066833 30.21797049 -135.4140625 32.0078125 C-134.76679199 32.20197754 -134.11952148 32.39614258 -133.45263672 32.59619141 C-122.20930876 35.78576813 -111.12729498 36.57179743 -99.4765625 36.5078125 C-98.76963257 36.50565735 -98.06270264 36.5035022 -97.33435059 36.50128174 C-86.66570847 36.4491175 -76.52081389 35.96380004 -66.1640625 33.1953125 C-65.01502441 32.90527344 -65.01502441 32.90527344 -63.84277344 32.609375 C-43.45220688 27.3806108 -17.52152105 1.58136472 0 0 Z " fill="#96806E" transform="translate(285.1640625,259.8046875)"/>
<path d="M0 0 C2.13770672 2.13770672 2.93517623 3.83132291 4.1875 6.5625 C6.84264886 11.96623405 10.086001 16.4436598 14 21 C14.47566406 21.58265625 14.95132813 22.1653125 15.44140625 22.765625 C18.24410589 25.89762355 20.9742524 28.06622178 24.77368164 29.85644531 C35.51679388 35.12644037 35.51679388 35.12644037 38.05929565 40.05227661 C39.84768745 45.66606699 40.14721273 51.46623254 40.5 57.3125 C40.66122564 59.05597526 40.82915018 60.79884457 41.00390625 62.54101562 C41.59132548 68.68503066 42.10402554 74.82195376 42 81 C41.3709375 81.25652344 40.741875 81.51304687 40.09375 81.77734375 C31.31566668 85.70368523 25.4061804 91.18481728 21.5 100.0625 C19.90098897 104.5439388 19.65003145 108.27542451 20 113 C21.32 113.66 22.64 114.32 24 115 C20.37 114.67 16.74 114.34 13 114 C12.34 111.69 11.68 109.38 11 107 C9.96939453 106.81824219 9.96939453 106.81824219 8.91796875 106.6328125 C8.01691406 106.46523438 7.11585938 106.29765625 6.1875 106.125 C5.29417969 105.96257812 4.40085938 105.80015625 3.48046875 105.6328125 C1 105 1 105 -2 103 C-3.30139766 95.33621377 -0.05785737 88.43447666 4 82 C5.63519247 80.94932242 7.2985534 79.93960484 9 79 C10.09658936 75.71023192 9.79953138 74.28696233 9 71 C12.465 70.01 12.465 70.01 16 69 C17.14521813 54.10629143 16.40585992 44.25757741 8.11132812 31.79248047 C2.17331755 22.2149599 0.95425201 10.9667768 0 0 Z " fill="#96806E" transform="translate(133,358)"/>
<path d="M0 0 C0.33 0.66 0.66 1.32 1 2 C-0.0018765 4.54252647 -1.06666383 7.01057553 -2.1875 9.5 C-9.53508102 26.7005607 -14.03895585 46.56111461 -7.0859375 64.609375 C-5.97728796 67.14089448 -5.97728796 67.14089448 -4.3125 70 C-1.24194816 77.0184042 -1.50885004 83.91662341 -4 91 C-4.6156385 94.32512442 -5.18326895 97.64577351 -5.6796875 100.99023438 C-6.67618534 106.89561644 -8.58256508 111.91831993 -13.25 115.9375 C-13.8275 116.288125 -14.405 116.63875 -15 117 C-15.99 116.34 -16.98 115.68 -18 115 C-17.505 113.783125 -17.01 112.56625 -16.5 111.3125 C-14.42142412 104.97684083 -13.12107165 97.10829175 -15.984375 90.84765625 C-16.83814219 89.60126156 -17.71936307 88.37329362 -18.625 87.1640625 C-23.42207057 79.61412756 -25.10403382 69.20595402 -25.25 60.375 C-25.27578125 59.45460938 -25.3015625 58.53421875 -25.328125 57.5859375 C-24.39751247 47.41567197 -20.70249835 38.17577381 -16.6875 28.875 C-15.99624023 27.22177734 -15.99624023 27.22177734 -15.29101562 25.53515625 C-11.3088272 16.197229 -6.79362799 7.59287834 0 0 Z " fill="#96806E" transform="translate(256,360)"/>
<path d="M0 0 C1.24233398 0.32000977 1.24233398 0.32000977 2.50976562 0.64648438 C12.5263964 3.33309071 12.5263964 3.33309071 15.6875 7.5 C16.62225636 10.77164725 16.38180693 12.41667881 15.3125 15.6875 C9.57476283 24.11917474 0.63324359 32.14848235 -9.43359375 34.52734375 C-11.6875 34.6875 -11.6875 34.6875 -15 33.5 C-20.29391821 27.95985303 -23.26861454 21.36706671 -23.6875 13.6875 C-23.749375 12.9553125 -23.81125 12.223125 -23.875 11.46875 C-24.16604145 6.01172281 -23.35106711 2.99757896 -19.6875 -1.3125 C-13.71974251 -4.29637874 -6.04847695 -1.66607613 0 0 Z " fill="#000000" transform="translate(242.6875,164.3125)"/>
<path d="M0 0 C2.04501205 3.00144846 1.62290743 5.30401803 1.26953125 8.86328125 C0.47961268 11.6651648 -0.59638225 14.27476113 -1.79296875 16.92578125 C-2.11023926 17.630979 -2.42750977 18.33617676 -2.75439453 19.06274414 C-5.13590031 24.10063537 -7.4501235 28.46908744 -12.73046875 30.86328125 C-17.27837292 32.28898151 -20.46479089 32.42017951 -24.85546875 30.48828125 C-32.87073325 23.16999627 -37.17820446 15.82181132 -38.04296875 4.92578125 C-37.73046875 1.86328125 -37.73046875 1.86328125 -35.73046875 -1.13671875 C-26.07959812 -4.29821085 -8.91359757 -5.85520743 0 0 Z " fill="#000000" transform="translate(156.73046875,156.13671875)"/>
<path d="M0 0 C2.3125 2.25 2.3125 2.25 3 5 C1.27071186 11.42307022 -3.28845232 18.62935079 -8.95703125 22.25 C-12.81357942 23.66578824 -16.16494078 23.41621468 -20 22 C-23.96437923 18.5810555 -28.71668747 14.17636931 -29.203125 8.72265625 C-29.21859375 7.84480469 -29.2340625 6.96695313 -29.25 6.0625 C-29.27578125 5.18722656 -29.3015625 4.31195313 -29.328125 3.41015625 C-29 1 -29 1 -27.671875 -0.75390625 C-20.69123867 -5.9567637 -7.33931013 -3.60451326 0 0 Z " fill="#000000" transform="translate(195,187)"/>
<path d="M0 0 C5.50808397 0.59015185 10.64878069 1.56663769 16 3 C15.1875 4.9375 15.1875 4.9375 14 7 C10.52487282 8.15837573 8.86329714 7.77265943 5.3125 7.0625 C4.31863281 6.86785156 3.32476562 6.67320312 2.30078125 6.47265625 C1.16189453 6.23869141 1.16189453 6.23869141 0 6 C0 4.02 0 2.04 0 0 Z " fill="#FFFFFF" transform="translate(230,173)"/>
<path d="M0 0 C0 0.99 0 1.98 0 3 C-4.95 3.66 -9.9 4.32 -15 5 C-15.66 3.35 -16.32 1.7 -17 0 C-11.06975197 -0.97040422 -5.93609666 -0.89316269 0 0 Z " fill="#FFFFFF" transform="translate(146,164)"/>
<path d="M0 0 C2.31 0.33 4.62 0.66 7 1 C5.68 2.32 4.36 3.64 3 5 C2.01 3.35 1.02 1.7 0 0 Z " fill="#CCBAAA" transform="translate(177,194)"/>
</svg>
