<?xml version="1.0" encoding="UTF-8"?>
<svg version="1.1" xmlns="http://www.w3.org/2000/svg" width="500" height="500">
<path d="M0 0 C165 0 330 0 500 0 C500 165 500 330 500 500 C335 500 170 500 0 500 C0 335 0 170 0 0 Z " fill="#CCBAAA" transform="translate(0,0)"/>
<path d="M0 0 C165 0 330 0 500 0 C500 165 500 330 500 500 C335 500 170 500 0 500 C0 335 0 170 0 0 Z M115.82421875 50.42578125 C113 52 113 52 110.0703125 51.40234375 C108.61238281 50.67724609 108.61238281 50.67724609 107.125 49.9375 C106.08085938 49.44765625 105.03671875 48.9578125 103.9609375 48.453125 C102.49527344 47.73382813 102.49527344 47.73382813 101 47 C95.8602316 44.70388353 90.6553913 42.57263546 85 44 C73.40658335 50.21317086 63.46853992 63.12441265 55 73 C54.17338867 73.95845825 54.17338867 73.95845825 53.33007812 74.9362793 C42.07436518 88.07403516 32.12792909 101.7995224 23.9375 117.0625 C23.40032349 118.06120117 23.40032349 118.06120117 22.85229492 119.08007812 C19.48684674 125.57887461 15.45385908 133.65583063 17 141 C19.64857216 144.70191235 22.74243119 147.83208904 26 151 C27.07894531 152.07507813 27.07894531 152.07507813 28.1796875 153.171875 C34.11713059 158.78308496 41.94099651 165.71796496 50.36328125 166.1875 C51.23339844 166.125625 52.10351562 166.06375 53 166 C52.96519531 166.65742188 52.93039063 167.31484375 52.89453125 167.9921875 C51.95337328 201.06716756 67.0630761 232.44203309 89.0625 256.37890625 C96.56036643 264.27949803 104.845327 271.09032105 114 277 C114.66 277 115.32 277 116 277 C115.67386719 277.72703125 115.34773438 278.4540625 115.01171875 279.203125 C96.94704466 320.76786185 109.16331712 376.84852973 125.04248047 417.68066406 C125.37779785 418.48987305 125.71311523 419.29908203 126.05859375 420.1328125 C130.39825175 430.62302579 130.39825175 430.62302579 129.171875 434.86328125 C127.625 437.375 127.625 437.375 125.8125 439.67578125 C121.43140338 445.2937823 119.22707849 452.82860886 119.62109375 459.93359375 C120.42135606 464.29791088 122.13573412 467.60603756 125.71875 470.28515625 C130.06965306 472.85698242 133.67954892 474.135079 138.6875 474.0625 C139.89986328 474.04896484 139.89986328 474.04896484 141.13671875 474.03515625 C141.75160156 474.02355469 142.36648437 474.01195312 143 474 C142.87625 474.7425 142.7525 475.485 142.625 476.25 C142.75380072 479.18962356 142.75380072 479.18962356 145.1875 481.3125 C149.42667489 483.85803325 154.1056237 483.20393558 158.87890625 482.9453125 C162 483 162 483 164.36206055 483.97753906 C167.18396368 485.07130402 169.3131621 485.31095521 172.328125 485.4140625 C173.95814453 485.47267456 173.95814453 485.47267456 175.62109375 485.5324707 C176.81863281 485.56300537 178.01617187 485.59354004 179.25 485.625 C181.14685547 485.67756958 181.14685547 485.67756958 183.08203125 485.73120117 C187.72092183 485.84862698 192.36024974 485.92557852 197 486 C197.9794458 486.01673767 198.9588916 486.03347534 199.96801758 486.05072021 C206.53566692 486.160011 213.10287027 486.23816611 219.67126465 486.28509521 C221.88560235 486.3033254 224.09989622 486.32807737 226.31408691 486.35943604 C229.45960977 486.40139444 232.60423152 486.41685504 235.75 486.42578125 C236.6957489 486.44323898 237.6414978 486.46069672 238.61590576 486.47868347 C244.25966211 486.46034207 247.54399014 485.81372981 252 482 C253.92679217 479.70517721 253.92679217 479.70517721 255.375 477.25 C255.87773437 476.45078125 256.38046875 475.6515625 256.8984375 474.828125 C257.26195312 474.22484375 257.62546875 473.6215625 258 473 C258.99 474.485 258.99 474.485 260 476 C261.06402031 477.51376085 262.14936182 479.01265111 263.25 480.5 C263.81203125 481.2734375 264.3740625 482.046875 264.953125 482.84375 C269.22856835 487.34765216 273.89435484 488.39123119 279.93481445 488.68359375 C280.58594617 488.71682236 281.23707788 488.75005096 281.90794086 488.7842865 C288.950331 489.11065425 295.99454354 489.10802272 303.04296875 489.0625 C304.42767663 489.05807363 305.8123866 489.05426278 307.19709778 489.05102539 C311.52726269 489.03977264 315.85737041 489.0205248 320.1875 489 C325.22696383 488.97617672 330.26639499 488.95587538 335.30590248 488.94406128 C337.2930795 488.93769973 339.28023362 488.92512726 341.26737976 488.91235352 C347.99016335 488.89432857 354.58931333 489.138153 361.28227234 489.76623535 C365.19606876 490.10287955 369.09307409 490.1801223 373.01953125 490.203125 C373.80720383 490.20882507 374.5948764 490.21452515 375.40641785 490.22039795 C377.04721785 490.22972502 378.68803555 490.23633191 380.32885742 490.24023438 C382.82568326 490.25005184 385.32172155 490.28123401 387.81835938 490.3125 C389.42707854 490.31902247 391.03580347 490.3242759 392.64453125 490.328125 C393.74786552 490.3466452 393.74786552 490.3466452 394.87348938 490.36553955 C399.95827677 490.34378645 403.48554501 489.38530216 408 487 C426.4906332 464.60104469 433.56785522 421.77485337 432.78515625 393.71679688 C432.70516173 387.89537716 432.93400613 384.102584 436 379 C436.29777344 377.84371094 436.59554688 376.68742187 436.90234375 375.49609375 C438.15794112 371.4969491 439.87625061 369.26161703 442.5625 366.0625 C470.51167521 331.35537323 478.73048621 279.27248109 474.5 236.06640625 C473.89165104 230.99729249 473.03393689 225.99871853 472 221 C471.83371094 220.195625 471.66742188 219.39125 471.49609375 218.5625 C466.34765215 194.76525884 455.36324909 170.36073018 434.40234375 156.5078125 C427.98717574 152.56490335 421.38836683 149.52684288 414 148 C413.31550781 147.84789062 412.63101562 147.69578125 411.92578125 147.5390625 C405.2794594 146.36387789 399.56546348 147.6446608 393.6875 150.75 C386.45148136 156.80806212 384.67939544 164.86088455 383.67578125 173.9296875 C383.16846744 187.39974375 386.89044642 200.78068567 390.19921875 213.7265625 C390.39646042 214.50106247 390.59370209 215.27556244 390.79692078 216.0735321 C391.78657533 219.94860078 392.79211486 223.81836052 393.82592773 227.68188477 C400.6806405 253.76205794 398.88423689 279.4001877 397 306 C396.15179688 305.05640625 395.30359375 304.1128125 394.4296875 303.140625 C368.78032054 274.92742962 334.93773877 252.29980837 296 249 C296.70125 248.21238281 297.4025 247.42476562 298.125 246.61328125 C318.22339387 223.68482873 328.30987674 197.2473783 330 167 C330.59425781 166.97421875 331.18851562 166.9484375 331.80078125 166.921875 C341.995401 166.22426494 351.57534795 163.30265073 359 156 C361.75465835 152.62896782 363.07521585 150.0342179 362.75 145.5625 C362.5025 144.716875 362.255 143.87125 362 143 C361.01 142.67 360.02 142.34 359 142 C358.9071875 140.9378125 358.814375 139.875625 358.71875 138.78125 C357.96917204 132.84709116 356.21639296 127.21518425 354.5 121.5 C353.96596558 119.7207312 353.96596558 119.7207312 353.42114258 117.90551758 C341.21904056 76.751424 341.21904056 76.751424 316 43 C310.53016778 40.26508389 302.53324919 41.39743102 296.78125 42.765625 C289.22985385 45.47344887 282.49783153 49.47257303 275.82299805 53.87255859 C270.69393444 57.11635457 270.69393444 57.11635457 267.4140625 56.56640625 C264.36635846 54.58885072 261.34867425 52.58648087 258.375 50.5 C214.15838809 20.43777676 159.8802416 16.7741328 115.82421875 50.42578125 Z " fill="#FFFFFF" transform="translate(0,0)"/>
<path d="M0 0 C33.19601242 0.07469265 63.27955455 16.95488223 86.93310547 39.38061523 C88.36976563 40.7205957 88.36976563 40.7205957 89.83544922 42.08764648 C113.44267873 64.54870851 132.82520684 100.41449676 134.13623047 133.40405273 C134.62656457 160.24599008 127.56283756 197.12256744 111.93310547 219.38061523 C106.61788173 221.28831804 100.49087909 220.57100389 94.93310547 220.56811523 C93.01111328 220.56908203 93.01111328 220.56908203 91.05029297 220.57006836 C80.84859743 220.51516687 70.72964552 219.96192417 60.56201172 219.09228516 C50.83150096 218.27240494 41.23312107 218.04854834 31.49560547 218.88061523 C21.65034609 219.64891864 11.80125359 219.55001003 1.93310547 219.38061523 C1.11261719 219.36804688 0.29212891 219.35547852 -0.55322266 219.3425293 C-2.7678842 219.29727558 -4.97868705 219.2214694 -7.19189453 219.13061523 C-8.43197266 219.08420898 -9.67205078 219.03780273 -10.94970703 218.98999023 C-14.6038644 218.27564368 -15.79589653 217.2704871 -18.06689453 214.38061523 C-20.26031181 210.32279327 -20.75109236 206.94193412 -20.06689453 202.38061523 C-18.39093214 199.94817107 -16.58551741 197.77608562 -14.59814453 195.59155273 C-12.95568783 193.49613202 -12.95568783 193.49613202 -12.49658203 191.12280273 C-13.40698322 186.7453943 -16.04825647 183.6671171 -18.69189453 180.13061523 C-19.79766529 178.60218785 -20.9031374 177.07354436 -22.00830078 175.54467773 C-23.69516586 173.24129084 -25.39068566 170.94515048 -27.09423828 168.65405273 C-34.46249839 158.34223833 -34.89391595 147.55296275 -33.06689453 135.38061523 C-29.10304963 114.55435986 -18.79180209 92.17888078 -1.31298828 79.36108398 C4.82593743 75.60087762 10.99753178 73.28449821 17.93310547 71.38061523 C17.93310547 69.73061523 17.93310547 68.08061523 17.93310547 66.38061523 C13.37230031 63.75252796 9.94526011 64.19062254 4.93310547 65.38061523 C-12.45285141 71.63395134 -24.65732922 87.27800031 -32.41992188 103.41357422 C-40.64387394 121.25080499 -47.54749948 142.62198988 -41.25439453 162.13061523 C-40.12751638 165.05570321 -38.9183336 167.64472356 -37.37939453 170.38061523 C-34.3088427 177.39901943 -34.57574457 184.29723865 -37.06689453 191.38061523 C-37.68253303 194.70573965 -38.25016348 198.02638874 -38.74658203 201.37084961 C-39.71713692 207.12249023 -41.52166631 211.85978123 -45.770401 216.0677948 C-48.9593535 217.89080103 -51.29997091 217.67627134 -54.95922852 217.56933594 C-55.64428467 217.55347946 -56.32934082 217.53762299 -57.03515625 217.52128601 C-59.2951411 217.46492193 -61.5537172 217.38615006 -63.81298828 217.30639648 C-65.38709963 217.26096837 -66.96124328 217.21664748 -68.53541565 217.17338562 C-71.83348084 217.07941517 -75.1309845 216.97485618 -78.4284668 216.86230469 C-82.64917074 216.71868732 -86.87014732 216.59695368 -91.09173489 216.48261738 C-94.34250749 216.39289676 -97.59293775 216.29374928 -100.84333992 216.1915493 C-102.39935176 216.14333369 -103.95543986 216.097516 -105.51159477 216.05416298 C-107.68987031 215.99161866 -109.86739833 215.91692744 -112.04516602 215.83886719 C-113.28330551 215.79873001 -114.52144501 215.75859283 -115.79710388 215.71723938 C-118.98442115 215.38910585 -121.23776711 214.86274448 -124.06689453 213.38061523 C-126.00439453 210.63061523 -126.00439453 210.63061523 -127.06689453 207.38061523 C-125.76286581 200.42579539 -121.41257985 195.12083062 -116.07861328 190.70092773 C-113.1877093 188.80359658 -110.20008822 187.85006771 -106.88720703 186.92358398 C-105.06489232 186.53710856 -105.06489232 186.53710856 -104.06689453 185.38061523 C-103.82260304 179.14381319 -104.43304834 173.11515582 -105.20361328 166.93139648 C-105.32493118 165.95575241 -105.44624908 164.98010834 -105.57124329 163.97489929 C-105.82962951 161.92476717 -106.09117168 159.87503058 -106.35571289 157.82568359 C-106.62203338 155.73311886 -106.8788365 153.63932138 -107.1262207 151.54443359 C-107.48539034 148.50374966 -107.8725028 145.46779099 -108.26611328 142.43139648 C-108.37154953 141.49797928 -108.47698578 140.56456207 -108.58561707 139.6028595 C-109.35772879 133.96268741 -110.37057641 131.01875768 -115.06689453 127.38061523 C-117.3208978 125.88063934 -119.56232916 124.45873132 -121.87939453 123.06811523 C-132.0685357 116.67773155 -137.96779762 109.5768555 -144.03173828 99.14331055 C-145.82636015 96.08737425 -147.70126619 93.08102172 -149.56689453 90.06811523 C-150.7335612 88.1722819 -151.90022786 86.27644857 -153.06689453 84.38061523 C-155.59105658 86.90477728 -155.39214805 87.87846319 -155.44189453 91.38061523 C-155.13314934 104.55374326 -146.78500095 115.29810116 -137.71044922 124.28076172 C-135.49650461 126.03936327 -133.76112101 127.08682494 -131.25048828 128.27368164 C-120.54281138 133.5182788 -120.54281138 133.5182788 -118.00952148 138.4312439 C-116.22040664 144.04608266 -115.91975357 149.84565836 -115.56689453 155.69311523 C-115.40566889 157.43659049 -115.23774435 159.1794598 -115.06298828 160.92163086 C-114.47556905 167.06564589 -113.96286899 173.20256899 -114.06689453 179.38061523 C-114.69595703 179.63713867 -115.32501953 179.89366211 -115.97314453 180.15795898 C-124.75122785 184.08430047 -130.66071413 189.56543251 -134.56689453 198.44311523 C-136.16590556 202.92455404 -136.41686309 206.65603974 -136.06689453 211.38061523 C-134.74689453 212.04061523 -133.42689453 212.70061523 -132.06689453 213.38061523 C-135.69689453 213.05061523 -139.32689453 212.72061523 -143.06689453 212.38061523 C-143.72689453 210.07061523 -144.38689453 207.76061523 -145.06689453 205.38061523 C-145.75396484 205.25944336 -146.44103516 205.13827148 -147.14892578 205.01342773 C-148.50050781 204.76206055 -148.50050781 204.76206055 -149.87939453 204.50561523 C-150.77271484 204.34319336 -151.66603516 204.18077148 -152.58642578 204.01342773 C-155.06689453 203.38061523 -155.06689453 203.38061523 -158.06689453 201.38061523 C-159.36829219 193.716829 -156.1247519 186.81509189 -152.06689453 180.38061523 C-150.43170207 179.32993765 -148.76834113 178.32022007 -147.06689453 177.38061523 C-145.66511398 174.31094924 -145.66511398 174.31094924 -147.50830078 171.22045898 C-148.21077973 169.91721366 -148.91818128 168.61661466 -149.62939453 167.31811523 C-161.4691069 144.50777851 -166.93821524 117.73065629 -170.06689453 92.38061523 C-170.1684082 91.60556641 -170.26992187 90.83051758 -170.37451172 90.03198242 C-173.27262096 67.47792722 -174.30563007 43.95825593 -166.06689453 22.38061523 C-161.7250597 23.76658672 -157.5733305 25.41315809 -153.37939453 27.19311523 C-147.3856732 29.65874195 -141.33506009 31.55260207 -135.06689453 33.19311523 C-134.27839111 33.39976807 -133.4898877 33.6064209 -132.67749023 33.81933594 C-113.45031 38.67872846 -89.26486683 38.5124703 -70.06689453 33.38061523 C-68.91785645 33.09057617 -68.91785645 33.09057617 -67.74560547 32.79467773 C-46.58109083 27.3674496 -18.59357501 0.35915392 0 0 Z " fill="#CCBAAA" transform="translate(289.06689453125,259.619384765625)"/>
<path d="M0 0 C1.9791935 1.54029946 1.9791935 1.54029946 5.06005859 3.17700195 C7.60975873 2.90597291 7.60975873 2.90597291 10.06005859 1.17700195 C11.42858631 0.41561109 12.7985263 -0.34324382 14.16943359 -1.1003418 C16.49010159 -2.42502344 18.8054792 -3.75783191 21.11474609 -5.10229492 C30.69452834 -10.54978127 39.89360882 -13.62914163 51.06005859 -11.82299805 C70.39296332 -1.98803384 80.88464833 34.50495336 87.18652344 53.58813477 C96.06005859 81.21249926 96.06005859 81.21249926 96.06005859 88.17700195 C97.05005859 88.50700195 98.04005859 88.83700195 99.06005859 89.17700195 C100.1751866 92.98702266 100.1792999 94.86470328 98.74755859 98.61450195 C93.56485862 106.58246245 84.89599844 109.97036449 76.13818359 112.5480957 C73.02391744 113.18438612 70.22917403 113.29560657 67.06005859 113.17700195 C66.93050781 115.01198242 66.93050781 115.01198242 66.79833984 116.8840332 C65.42965694 134.06306703 62.10826589 149.80286238 54.06005859 165.17700195 C53.59857422 166.10641602 53.13708984 167.03583008 52.66162109 167.9934082 C47.48471773 178.04689733 40.44298506 186.67601809 33.06005859 195.17700195 C34.23439453 195.32395508 35.40873047 195.4709082 36.61865234 195.62231445 C54.33363622 198.01583033 69.3753227 203.755586 85.06005859 212.17700195 C85.66446777 212.4939502 86.26887695 212.81089844 86.89160156 213.13745117 C105.27635959 222.81390362 120.36329661 236.71828246 134.06005859 252.17700195 C136.22589438 221.60185209 136.25407794 194.19734915 128.56005859 164.30200195 C116.86013513 118.34500356 116.86013513 118.34500356 125.38427734 102.75512695 C129.22220495 97.23495811 133.01482666 94.93830994 139.56005859 93.30200195 C152.022524 92.21212855 165.24882281 97.90318601 174.91552734 105.38793945 C177.38424436 107.57654486 179.72978384 109.8425285 182.06005859 112.17700195 C182.68267578 112.7287207 183.30529297 113.28043945 183.94677734 113.84887695 C203.9967893 132.05158444 210.98065301 165.84738563 212.22851562 191.66186523 C213.39912308 228.84212124 206.88262972 265.29244634 189.06005859 298.17700195 C188.55603516 299.11286133 188.05201172 300.0487207 187.53271484 301.01293945 C184.85842762 305.70961009 181.8106616 309.74417497 178.31005859 313.86450195 C174.78856223 318.05844486 172.98759659 320.81789352 172.06005859 326.17700195 C171.71716797 327.18504883 171.37427734 328.1930957 171.02099609 329.23168945 C169.63944662 333.98556932 169.97572758 338.64852903 170.12255859 343.55200195 C170.44415679 372.30666457 161.14411974 407.55347748 146.06005859 432.17700195 C141.28885387 436.61555297 136.23873897 436.32663591 129.99755859 436.30981445 C128.81685791 436.31124954 128.81685791 436.31124954 127.61230469 436.31271362 C125.94466065 436.3133935 124.27701394 436.31155259 122.609375 436.30737305 C120.0967793 436.30207932 117.58436708 436.30729464 115.07177734 436.3137207 C113.44287071 436.31305877 111.81396418 436.31177525 110.18505859 436.30981445 C109.08278931 436.3128508 109.08278931 436.3128508 107.95825195 436.31594849 C103.7425763 436.29766872 99.60296891 436.06665127 95.4050293 435.67260742 C88.40200373 435.05307946 81.44133133 435.06933879 74.41552734 435.11450195 C73.03371862 435.11892554 71.65190783 435.12273719 70.27009583 435.12597656 C65.19953929 435.13917345 60.12904739 435.1633437 55.05853271 435.18737793 C50.75755964 435.20734609 46.45661141 435.22288512 42.15560341 435.23294067 C40.17355703 435.2392765 38.1915336 435.25184746 36.20951843 435.26464844 C29.7976925 435.28170871 23.39823018 435.18737235 16.99487305 434.8605957 C15.21461479 434.77442993 15.21461479 434.77442993 13.39839172 434.68652344 C8.70860435 433.97073285 5.28934 432.47197015 2.01318359 429.02075195 C1.45115234 428.24731445 0.88912109 427.47387695 0.31005859 426.67700195 C-0.26228516 425.90356445 -0.83462891 425.13012695 -1.42431641 424.33325195 C-2.62056337 422.63137482 -3.78603265 420.90786508 -4.93994141 419.17700195 C-5.30345703 419.7802832 -5.66697266 420.38356445 -6.04150391 421.00512695 C-6.54423828 421.8043457 -7.04697266 422.60356445 -7.56494141 423.42700195 C-8.05220703 424.2159082 -8.53947266 425.00481445 -9.04150391 425.81762695 C-11.81996563 429.27069461 -14.64647999 431.81087984 -19.16494751 432.53219604 C-21.84854357 432.65648954 -24.50388954 432.65236574 -27.18994141 432.6027832 C-28.18897995 432.59994827 -29.18801849 432.59711334 -30.21733093 432.5941925 C-33.45869881 432.57944084 -36.69887721 432.53539999 -39.93994141 432.48950195 C-42.16364595 432.47120019 -44.38736084 432.45411456 -46.61108398 432.43823242 C-53.05467055 432.38378829 -59.49709534 432.28722336 -65.93994141 432.17700195 C-67.26055573 432.15576263 -67.26055573 432.15576263 -68.60784912 432.13409424 C-73.61542511 432.05194613 -78.62111768 431.94124433 -83.62744141 431.80200195 C-84.81660156 431.77146729 -86.00576172 431.74093262 -87.23095703 431.70947266 C-92.57091508 431.51688791 -96.88966545 431.02447921 -101.93994141 429.17700195 C-104.94156583 429.08328574 -104.94156583 429.08328574 -107.93994141 429.30200195 C-114.48012205 429.40775114 -114.48012205 429.40775114 -117.68994141 427.48950195 C-119.93994141 425.17700195 -119.93994141 425.17700195 -120.31494141 422.42700195 C-120.19119141 421.68450195 -120.06744141 420.94200195 -119.93994141 420.17700195 C-121.23931641 420.25950195 -122.53869141 420.34200195 -123.87744141 420.42700195 C-129.22775966 420.41856297 -133.40698617 418.99306633 -137.93994141 416.17700195 C-142.13191689 411.88022709 -143.40732091 408.07230146 -143.35791016 402.04418945 C-142.41495617 395.57570139 -139.51227072 387.88487823 -135.74536133 382.45507812 C-134.12127957 380.10784308 -132.82624508 378.15434835 -133.16601562 375.23364258 C-133.89603851 372.99184841 -134.78414257 370.88916207 -135.75244141 368.73950195 C-136.44051794 367.04966202 -137.12118608 365.35679142 -137.79541016 363.66137695 C-138.15296387 362.76999023 -138.51051758 361.87860352 -138.87890625 360.96020508 C-154.21549417 320.7307752 -165.82579839 265.9670499 -147.93994141 225.17700195 C-147.60994141 224.51700195 -147.27994141 223.85700195 -146.93994141 223.17700195 C-147.63087891 222.94625977 -148.32181641 222.71551758 -149.03369141 222.4777832 C-152.5647289 220.89735916 -155.43388281 218.75722525 -158.43994141 216.36450195 C-159.04942627 215.87949219 -159.65891113 215.39448242 -160.28686523 214.89477539 C-187.41680133 192.88825436 -204.81449002 162.74837007 -209.53759766 128.05981445 C-209.90034519 124.55912463 -210.04239471 121.1928929 -210.00244141 117.67700195 C-209.99341797 116.63543945 -209.98439453 115.59387695 -209.97509766 114.52075195 C-209.96349609 113.74731445 -209.95189453 112.97387695 -209.93994141 112.17700195 C-210.81521484 112.2337207 -211.69048828 112.29043945 -212.59228516 112.34887695 C-224.10138166 111.75797818 -235.00640231 99.6448361 -242.40673828 91.578125 C-244.61464558 89.03612647 -245.88125583 87.46456127 -246.56494141 84.11450195 C-242.85238349 60.72538709 -225.12689719 39.41624906 -209.93994141 22.17700195 C-208.98667969 21.07485352 -208.98667969 21.07485352 -208.01416016 19.95043945 C-206.33599966 18.01380367 -204.64122257 16.09334349 -202.93994141 14.17700195 C-202.25544922 13.39969727 -201.57095703 12.62239258 -200.86572266 11.8215332 C-181.93397024 -9.48907816 -181.93397024 -9.48907816 -174.34228516 -10.1237793 C-169.33027422 -10.03448353 -165.19318058 -8.31846633 -160.62744141 -6.38549805 C-159.04810639 -5.74074123 -157.468683 -5.09620083 -155.88916016 -4.4519043 C-155.20168701 -4.16387939 -154.51421387 -3.87585449 -153.8059082 -3.57910156 C-152.20774275 -2.93151313 -150.57583665 -2.36829646 -148.93994141 -1.82299805 C-146.77023265 -3.05307452 -146.77023265 -3.05307452 -144.51025391 -4.87768555 C-138.91054049 -8.96736389 -133.07386357 -11.99382922 -126.81494141 -14.94799805 C-125.17005737 -15.72892822 -125.17005737 -15.72892822 -123.49194336 -16.52563477 C-115.12366065 -20.42406738 -106.92188482 -23.65210451 -97.93994141 -25.82299805 C-96.94865234 -26.06405273 -95.95736328 -26.30510742 -94.93603516 -26.5534668 C-61.55797306 -33.31990387 -26.18720549 -20.39016365 0 0 Z M-144.95947266 8.05981445 C-146.93994141 9.17700195 -146.93994141 9.17700195 -148.8359375 8.83056641 C-152.90492907 7.56661996 -156.8591126 5.97016687 -160.83251953 4.43676758 C-162.86138658 3.66322603 -164.8996533 2.91978771 -166.93994141 2.17700195 C-168.16455078 1.70649414 -169.38916016 1.23598633 -170.65087891 0.7512207 C-173.93031013 -0.17941654 -173.93031013 -0.17941654 -176.45947266 1.59887695 C-177.21615234 2.3671582 -177.97283203 3.13543945 -178.75244141 3.92700195 C-179.60322266 4.77004883 -180.45400391 5.6130957 -181.33056641 6.48168945 C-182.19166016 7.37114258 -183.05275391 8.2605957 -183.93994141 9.17700195 C-184.78041016 9.98395508 -185.62087891 10.7909082 -186.48681641 11.62231445 C-191.58848318 16.54970068 -196.17897911 21.72981248 -200.59619141 27.2746582 C-202.23317418 29.30178854 -203.88121045 31.27782385 -205.59619141 33.2355957 C-215.052232 44.04703554 -222.69737814 55.5276479 -229.50244141 68.17700195 C-229.93242432 68.96606934 -230.36240723 69.75513672 -230.80541992 70.56811523 C-233.15460593 75.06017534 -234.94624456 78.99581079 -234.93994141 84.17700195 C-228.42022498 94.94714124 -212.30782803 103.57571451 -200.93994141 108.17700195 C-199.94994141 108.17700195 -198.95994141 108.17700195 -197.93994141 108.17700195 C-197.97474609 109.37454102 -198.00955078 110.57208008 -198.04541016 111.8059082 C-198.69597043 143.78573401 -186.33878402 172.2855108 -164.67651367 195.48535156 C-142.55592406 218.30496439 -111.93422604 231.73755612 -80.15380859 232.46240234 C-68.83954575 232.57040743 -57.99423308 231.58773943 -46.93994141 229.17700195 C-46.24658691 229.02666504 -45.55323242 228.87632812 -44.83886719 228.72143555 C-26.06271006 224.41735573 -7.83878633 215.33639631 7.06005859 203.17700195 C7.64577637 202.70649414 8.23149414 202.23598633 8.83496094 201.7512207 C20.20550694 192.55530299 30.13076359 182.55947922 38.06005859 170.17700195 C38.64529297 169.27594727 39.23052734 168.37489258 39.83349609 167.4465332 C51.78587679 148.1087295 54.65258579 128.54718272 54.06005859 106.17700195 C55.09066406 106.22920898 55.09066406 106.22920898 56.14208984 106.2824707 C57.04314453 106.30954102 57.94419922 106.33661133 58.87255859 106.36450195 C59.76587891 106.39930664 60.65919922 106.43411133 61.57958984 106.4699707 C64.52976791 106.12152448 65.16237763 105.35867056 67.06005859 103.17700195 C69.44287109 102.62231445 69.44287109 102.62231445 72.18505859 102.30200195 C77.97093099 101.40831194 82.15628497 99.25714846 87.06005859 96.17700195 C86.67749 87.69037582 84.49464275 79.94274224 81.99755859 71.86450195 C81.79686768 71.20670746 81.59617676 70.54891296 81.3894043 69.8711853 C70.06144186 30.79302761 70.06144186 30.79302761 47.06005859 -1.82299805 C38.24034973 -3.66043739 28.47765229 2.11457583 21.12255859 6.48950195 C15.47577982 10.25676896 11.22867491 14.67115301 9.06005859 21.17700195 C8.61839355 20.83032471 8.17672852 20.48364746 7.72167969 20.12646484 C-16.78115659 0.96204066 -42.78875495 -16.30952046 -75.06494141 -16.13549805 C-76.71417603 -16.12703857 -76.71417603 -16.12703857 -78.39672852 -16.1184082 C-102.45337102 -15.76196122 -126.08695077 -6.97139767 -144.95947266 8.05981445 Z M14.03662109 211.0559082 C-3.79687337 230.1934329 -39.12527088 241.04626369 -64.35473633 242.35400391 C-89.2867385 242.78248268 -112.75477869 241.35095188 -135.29150391 229.3996582 C-137.95723319 227.80235275 -137.95723319 227.80235275 -140.93994141 229.17700195 C-141.81002636 231.89226707 -142.48088379 234.46172395 -143.06494141 237.23950195 C-143.23380859 237.9787793 -143.40267578 238.71805664 -143.57666016 239.47973633 C-152.699954 280.53455864 -143.86609383 341.37515576 -121.43994141 377.30200195 C-119.93994141 380.17700195 -119.93994141 380.17700195 -120.43994141 382.48950195 C-121.93994141 384.17700195 -121.93994141 384.17700195 -123.83056641 384.8996582 C-128.49365656 387.72341835 -130.18185653 394.24172446 -131.93994141 399.17700195 C-132.36203201 402.08425863 -132.28529354 404.24150883 -131.93994141 407.17700195 C-127.31553716 409.25326508 -122.83907631 410.87723147 -117.93994141 412.17700195 C-117.60994141 414.15700195 -117.27994141 416.13700195 -116.93994141 418.17700195 C-113.30994141 418.50700195 -109.67994141 418.83700195 -105.93994141 419.17700195 C-107.25994141 418.51700195 -108.57994141 417.85700195 -109.93994141 417.17700195 C-110.60460925 408.20398608 -108.02668781 401.32497024 -102.31494141 394.36450195 C-98.13058704 389.9117173 -93.50102307 387.53735765 -87.93994141 385.17700195 C-88.00052734 384.49130127 -88.06111328 383.80560059 -88.12353516 383.09912109 C-88.51490744 378.55280514 -88.89852769 374.01596006 -89.12353516 369.45776367 C-89.32778113 353.8993604 -89.32778113 353.8993604 -94.6484375 339.8269043 C-98.59377765 336.32554592 -103.13481195 334.20370507 -107.94482422 332.1262207 C-117.42905431 327.61389978 -124.39859094 315.56738807 -128.14697266 306.1418457 C-128.95664638 303.11454345 -129.20721831 300.55412088 -129.18994141 297.42700195 C-129.19509766 296.4834082 -129.20025391 295.53981445 -129.20556641 294.56762695 C-128.93994141 292.17700195 -128.93994141 292.17700195 -126.93994141 290.17700195 C-125.73085154 292.13486829 -124.52271704 294.09332462 -123.31494141 296.05200195 C-122.94812256 296.64408447 -122.58130371 297.23616699 -122.20336914 297.84619141 C-120.06110235 301.3141114 -118.01101753 304.81696045 -116.00244141 308.36450195 C-109.88398954 318.5234409 -101.64607486 325.83055473 -91.37744141 331.62231445 C-90.57306641 332.09411133 -89.76869141 332.5659082 -88.93994141 333.05200195 C-88.21806641 333.44129883 -87.49619141 333.8305957 -86.75244141 334.23168945 C-82.37650549 338.92827585 -82.45860289 347.89215756 -81.65087891 354.0871582 C-81.48865341 355.30477089 -81.48865341 355.30477089 -81.32315063 356.54698181 C-81.09770724 358.24834204 -80.87428898 359.94997176 -80.65283203 361.65185547 C-80.31522128 364.23735861 -79.96780433 366.82141846 -79.61962891 369.40551758 C-79.40028573 371.07015307 -79.18151626 372.73486427 -78.96337891 374.3996582 C-78.86028412 375.16133804 -78.75718933 375.92301788 -78.65097046 376.70777893 C-78.02800057 381.57145274 -77.68081389 386.27266209 -77.93994141 391.17700195 C-80.26929719 393.50635773 -81.471102 393.64429587 -84.62744141 394.36450195 C-91.83684502 396.44513792 -95.81831525 400.85041938 -99.50244141 407.23950195 C-100.88846707 410.28286044 -100.96593915 411.0392139 -100.31494141 414.48950195 C-98.54796704 418.41564178 -98.54796704 418.41564178 -95.25045776 420.83898926 C-92.15525323 421.29179645 -89.09753776 421.44933865 -85.97167969 421.58520508 C-85.27847626 421.61610229 -84.58527283 421.64699951 -83.87106323 421.67883301 C-76.65111153 421.99257908 -69.42854465 422.24441835 -62.20605469 422.49145508 C-58.78118065 422.6106491 -55.35796089 422.74950092 -51.93457031 422.90551758 C-47.79396644 423.09401573 -43.65344287 423.24726894 -39.51055527 423.37571716 C-37.93527722 423.43045348 -36.36037613 423.49751685 -34.78616714 423.57728577 C-26.3663255 424.30141221 -26.3663255 424.30141221 -18.64758301 421.70063782 C-15.64819238 418.31909672 -14.0895227 414.80770415 -13.18994141 410.36450195 C-12.86123047 408.82149414 -12.86123047 408.82149414 -12.52587891 407.24731445 C-12.33251953 406.23411133 -12.13916016 405.2209082 -11.93994141 404.17700195 C-11.74658203 403.24629883 -11.55322266 402.3155957 -11.35400391 401.35668945 C-10.86177667 398.96689057 -10.39686027 396.57374908 -9.93994141 394.17700195 C-9.74271484 393.3880957 -9.54548828 392.59918945 -9.34228516 391.78637695 C-8.22241608 384.52353676 -10.15119534 376.39907555 -13.93994141 370.15356445 C-20.65756809 356.87575547 -17.31201275 338.72056132 -12.93994141 325.17700195 C-8.55691344 312.77533966 -3.15575139 301.48007177 5.06005859 291.17700195 C5.68267578 290.36231445 6.30529297 289.54762695 6.94677734 288.70825195 C13.73770163 280.39399664 23.57624397 272.93590054 34.06005859 270.17700195 C38.07665572 269.79079069 40.6104621 270.05417334 44.06005859 272.17700195 C44.06005859 273.82700195 44.06005859 275.47700195 44.06005859 277.17700195 C42.69880859 277.48637695 42.69880859 277.48637695 41.31005859 277.80200195 C25.26263541 282.50276228 12.99731463 293.67520056 4.95703125 308.16479492 C-4.09872681 325.53006818 -11.46174574 345.73726677 -5.99438477 365.25268555 C-4.27610119 370.01804804 -1.53817129 373.86224848 1.43505859 377.92700195 C1.99966797 378.72493164 2.56427734 379.52286133 3.14599609 380.3449707 C5.24971301 383.31062718 7.3515488 386.26884179 9.58837891 389.13598633 C11.53214941 391.67014801 12.96081568 393.67932795 13.59130859 396.84106445 C12.90753286 399.84766655 11.6262929 401.28078409 9.56005859 403.55200195 C7.11709236 406.54996255 6.11956934 407.8686281 5.37255859 411.73950195 C6.21817368 415.96757739 7.65893469 419.58407932 10.06005859 423.17700195 C22.68876525 429.49135528 46.89970644 425.59326547 60.6796875 424.41577148 C70.52260372 423.72052578 80.2491495 424.33864489 90.06005859 425.17700195 C100.38763558 425.9828239 110.64230263 426.39563823 120.99755859 426.42700195 C122.22925781 426.43602539 123.46095703 426.44504883 124.72998047 426.4543457 C126.4537793 426.44854492 126.4537793 426.44854492 128.21240234 426.44262695 C129.22294678 426.44037109 130.23349121 426.43811523 131.2746582 426.43579102 C134.26313367 426.15813443 136.39596558 425.55138167 139.06005859 424.17700195 C140.44338232 421.963684 141.40745235 420.06771141 142.37255859 417.67700195 C142.80640869 416.64095825 142.80640869 416.64095825 143.24902344 415.58398438 C159.61404709 375.04632989 165.79770484 337.77153002 149.01953125 296.62524414 C144.19590859 285.35906632 138.33110537 275.03549331 131.06005859 265.17700195 C130.37685547 264.25016602 129.69365234 263.32333008 128.98974609 262.3684082 C107.43484614 234.78961035 74.59190464 210.72390485 39.06005859 206.17700195 C25.27733222 204.47253553 25.27733222 204.47253553 14.03662109 211.0559082 Z " fill="#000000" transform="translate(262.93994140625,53.822998046875)"/>
<path d="M0 0 C17.11004491 6.02925392 28.88753845 18.29915513 36.93701172 34.26025391 C56.45290775 75.06812913 52.49484219 123.85667552 38.27709961 165.62158203 C32.61775925 181.49745587 25.13369368 196.36838217 12.84375 208.15625 C12.58271484 207.48271484 12.32167969 206.80917969 12.05273438 206.11523438 C3.17709257 182.71102106 3.17709257 182.71102106 -9.34375 161.15625 C-12.20795251 156.79514528 -12.20795251 156.79514528 -11.9921875 154.12890625 C-11.21875 152.21875 -11.21875 152.21875 -10.19921875 150.296875 C-4.55370417 138.70982636 -5.96098512 121.66230212 -5.90625 109.09375 C-5.885625 107.93681641 -5.865 106.77988281 -5.84375 105.58789062 C-5.76572146 87.65108061 -9.78204474 70.48182968 -14.28125 53.21875 C-14.96614683 50.55190577 -15.64828258 47.88436828 -16.32980347 45.21665955 C-16.74900702 43.57989053 -17.17066871 41.94374834 -17.59524536 40.30836487 C-19.49721953 32.95909687 -20.36422635 26.31977827 -20.40625 18.71875 C-20.426875 17.78998047 -20.4475 16.86121094 -20.46875 15.90429688 C-20.49906505 10.58021659 -20.26865992 6.69167617 -17.15625 2.15625 C-12.20000583 -2.6276912 -6.26424997 -1.67460148 0 0 Z " fill="#CCBAAA" transform="translate(415.15625,158.84375)"/>
<path d="M0 0 C14.04446443 5.08753559 20.88306774 23.01097849 26.82666016 35.67773438 C33.95045458 51.42738487 37.74352932 68.08652243 41 85 C41.24878906 86.25683594 41.49757813 87.51367188 41.75390625 88.80859375 C45.4022862 110.87746546 44.15250836 133.71129089 36.1875 154.625 C32.83682206 163.52233865 34.66239903 169.59211438 37.4765625 178.421875 C38.08331568 181.41036079 37.99468299 183.11820815 37 186 C35.69846842 187.36439404 34.36767967 188.70192147 33 190 C32.73896484 189.32646484 32.47792969 188.65292969 32.20898438 187.95898438 C23.33334257 164.55477106 23.33334257 164.55477106 10.8125 143 C7.94829749 138.63889528 7.94829749 138.63889528 8.1640625 135.97265625 C8.9375 134.0625 8.9375 134.0625 9.95703125 132.140625 C15.60254583 120.55357636 14.19526488 103.50605212 14.25 90.9375 C14.270625 89.78056641 14.29125 88.62363281 14.3125 87.43164062 C14.39052854 69.49483061 10.37420526 52.32557968 5.875 35.0625 C5.19010317 32.39565577 4.50796742 29.72811828 3.82644653 27.06040955 C3.40724298 25.42364053 2.98558129 23.78749834 2.56100464 22.15211487 C1.07767254 16.42048856 -0.13430057 11.14694747 -0.0625 5.1875 C-0.05347656 4.21167969 -0.04445313 3.23585937 -0.03515625 2.23046875 C-0.02355469 1.49441406 -0.01195312 0.75835937 0 0 Z " fill="#96806E" transform="translate(395,177)"/>
<path d="M0 0 C1.21816406 0.03480469 1.21816406 0.03480469 2.4609375 0.0703125 C3.68683594 0.09738281 3.68683594 0.09738281 4.9375 0.125 C5.56398438 0.14820313 6.19046875 0.17140625 6.8359375 0.1953125 C-0.80842059 9.33125266 -9.04461416 16.74916178 -18.51269531 23.94091797 C-19.89004205 24.98716391 -21.25864074 26.04491371 -22.625 27.10546875 C-33.34142672 35.05818542 -45.72605991 41.35988635 -58.3515625 45.6328125 C-59.00189453 45.85525635 -59.65222656 46.0777002 -60.32226562 46.30688477 C-74.08134006 50.65088798 -87.64526869 51.70964204 -101.9765625 51.5703125 C-102.80967957 51.56632446 -103.64279663 51.56233643 -104.50115967 51.55822754 C-123.7544081 51.45010735 -145.61664102 51.15716717 -161.1640625 38.1953125 C-163.63266299 35.58150021 -164.18810007 34.23533781 -164.10546875 30.66015625 C-163.87610156 28.15123208 -163.56484087 25.68206984 -163.1640625 23.1953125 C-159.03266166 21.81817889 -156.75361881 23.53741455 -153.0390625 25.3203125 C-147.26388766 27.96495068 -141.51066833 30.21797049 -135.4140625 32.0078125 C-134.76679199 32.20197754 -134.11952148 32.39614258 -133.45263672 32.59619141 C-122.20930876 35.78576813 -111.12729498 36.57179743 -99.4765625 36.5078125 C-98.76963257 36.50565735 -98.06270264 36.5035022 -97.33435059 36.50128174 C-86.66570847 36.4491175 -76.52081389 35.96380004 -66.1640625 33.1953125 C-65.01502441 32.90527344 -65.01502441 32.90527344 -63.84277344 32.609375 C-43.45220688 27.3806108 -17.52152105 1.58136472 0 0 Z " fill="#96806E" transform="translate(285.1640625,259.8046875)"/>
<path d="M0 0 C2.13770672 2.13770672 2.93517623 3.83132291 4.1875 6.5625 C6.84264886 11.96623405 10.086001 16.4436598 14 21 C14.47566406 21.58265625 14.95132813 22.1653125 15.44140625 22.765625 C18.24410589 25.89762355 20.9742524 28.06622178 24.77368164 29.85644531 C35.51679388 35.12644037 35.51679388 35.12644037 38.05929565 40.05227661 C39.84768745 45.66606699 40.14721273 51.46623254 40.5 57.3125 C40.66122564 59.05597526 40.82915018 60.79884457 41.00390625 62.54101562 C41.59132548 68.68503066 42.10402554 74.82195376 42 81 C41.3709375 81.25652344 40.741875 81.51304687 40.09375 81.77734375 C31.31566668 85.70368523 25.4061804 91.18481728 21.5 100.0625 C19.90098897 104.5439388 19.65003145 108.27542451 20 113 C21.32 113.66 22.64 114.32 24 115 C20.37 114.67 16.74 114.34 13 114 C12.34 111.69 11.68 109.38 11 107 C9.96939453 106.81824219 9.96939453 106.81824219 8.91796875 106.6328125 C8.01691406 106.46523438 7.11585938 106.29765625 6.1875 106.125 C5.29417969 105.96257812 4.40085938 105.80015625 3.48046875 105.6328125 C1 105 1 105 -2 103 C-3.30139766 95.33621377 -0.05785737 88.43447666 4 82 C5.63519247 80.94932242 7.2985534 79.93960484 9 79 C10.09658936 75.71023192 9.79953138 74.28696233 9 71 C12.465 70.01 12.465 70.01 16 69 C17.14521813 54.10629143 16.40585992 44.25757741 8.11132812 31.79248047 C2.17331755 22.2149599 0.95425201 10.9667768 0 0 Z " fill="#96806E" transform="translate(133,358)"/>
<path d="M0 0 C0.33 0.66 0.66 1.32 1 2 C-0.0018765 4.54252647 -1.06666383 7.01057553 -2.1875 9.5 C-9.53508102 26.7005607 -14.03895585 46.56111461 -7.0859375 64.609375 C-5.97728796 67.14089448 -5.97728796 67.14089448 -4.3125 70 C-1.24194816 77.0184042 -1.50885004 83.91662341 -4 91 C-4.6156385 94.32512442 -5.18326895 97.64577351 -5.6796875 100.99023438 C-6.67618534 106.89561644 -8.58256508 111.91831993 -13.25 115.9375 C-13.8275 116.288125 -14.405 116.63875 -15 117 C-15.99 116.34 -16.98 115.68 -18 115 C-17.505 113.783125 -17.01 112.56625 -16.5 111.3125 C-14.42142412 104.97684083 -13.12107165 97.10829175 -15.984375 90.84765625 C-16.83814219 89.60126156 -17.71936307 88.37329362 -18.625 87.1640625 C-23.42207057 79.61412756 -25.10403382 69.20595402 -25.25 60.375 C-25.27578125 59.45460938 -25.3015625 58.53421875 -25.328125 57.5859375 C-24.39751247 47.41567197 -20.70249835 38.17577381 -16.6875 28.875 C-15.99624023 27.22177734 -15.99624023 27.22177734 -15.29101562 25.53515625 C-11.3088272 16.197229 -6.79362799 7.59287834 0 0 Z " fill="#96806E" transform="translate(256,360)"/>
<path d="M0 0 C4.98281062 2.49140531 8.71087914 5.74227092 10.79296875 11.00390625 C12.24961263 16.08008948 12.11476199 19.99314305 10.19140625 24.91796875 C7.61935319 29.41273689 3.87095815 32.37634728 -1 34 C-6.61599916 34.36826224 -10.17665989 34.21556007 -15 31 C-18.72409018 27.31617026 -20.83241245 24.13674132 -21.25 18.8125 C-20.81730851 12.21395481 -19.1639909 7.73603936 -14.4375 3 C-9.84233877 -0.69813159 -5.7079224 -1.20670843 0 0 Z " fill="#000000" transform="translate(240,164)"/>
<path d="M0 0 C4.46321544 2.15190744 7.10289408 4.40700671 9 9 C10.39939969 15.37865907 10.5255173 20.27103438 7 26 C2.76426826 30.32377235 -0.58417379 33.13499894 -6.75 33.3125 C-11.63630347 33.24913295 -14.29038005 32.35632281 -18 29 C-21.46909068 24.78083567 -22.90714902 21.47820753 -23 16 C-21.83420092 10.0059357 -19.84713034 5.90134881 -15 2 C-10.27434499 -0.8637267 -5.36415843 -0.62970555 0 0 Z " fill="#000000" transform="translate(142,150)"/>
<path d="M0 0 C2.3125 2.25 2.3125 2.25 3 5 C1.27071186 11.42307022 -3.28845232 18.62935079 -8.95703125 22.25 C-12.81357942 23.66578824 -16.16494078 23.41621468 -20 22 C-23.96437923 18.5810555 -28.71668747 14.17636931 -29.203125 8.72265625 C-29.21859375 7.84480469 -29.2340625 6.96695313 -29.25 6.0625 C-29.27578125 5.18722656 -29.3015625 4.31195313 -29.328125 3.41015625 C-29 1 -29 1 -27.671875 -0.75390625 C-20.69123867 -5.9567637 -7.33931013 -3.60451326 0 0 Z " fill="#000000" transform="translate(195,187)"/>
<path d="M0 0 C2.7019433 0.36512747 4.58390852 0.69869237 6.8125 2.3125 C8 4 8 4 8 8 C6.35333797 7.8864371 4.70763918 7.75882619 3.0625 7.625 C1.68771484 7.52058594 1.68771484 7.52058594 0.28515625 7.4140625 C-0.84599609 7.20910156 -0.84599609 7.20910156 -2 7 C-2.33 6.34 -2.66 5.68 -3 5 C-1.5625 2.375 -1.5625 2.375 0 0 Z " fill="#FDFCFC" transform="translate(233,174)"/>
<path d="M0 0 C2.9375 0.375 2.9375 0.375 4.9375 2.375 C5.0625 5 5.0625 5 4.9375 7.375 C3.47827307 7.26090407 2.02009402 7.13334456 0.5625 7 C-0.65566406 6.89558594 -0.65566406 6.89558594 -1.8984375 6.7890625 C-4.0625 6.375 -4.0625 6.375 -6.0625 4.375 C-4.29380527 1.23065381 -3.67806806 0.45037568 0 0 Z " fill="#FFFFFF" transform="translate(136.0625,159.625)"/>
<path d="M0 0 C2.31 0.33 4.62 0.66 7 1 C5.68 2.32 4.36 3.64 3 5 C2.01 3.35 1.02 1.7 0 0 Z " fill="#CCBAAA" transform="translate(177,194)"/>
</svg>
