<?xml version="1.0" encoding="UTF-8"?>
<svg version="1.1" xmlns="http://www.w3.org/2000/svg" width="500" height="500">
<path d="M0 0 C165 0 330 0 500 0 C500 165 500 330 500 500 C335 500 170 500 0 500 C0 335 0 170 0 0 Z " fill="#CCBAAA" transform="translate(0,0)"/>
<path d="M0 0 C165 0 330 0 500 0 C500 165 500 330 500 500 C335 500 170 500 0 500 C0 335 0 170 0 0 Z M138 38 C136.80262207 38.56895996 136.80262207 38.56895996 135.58105469 39.14941406 C111.73910017 50.51021044 111.73910017 50.51021044 94 69 C90.29922871 68.34731852 86.91119152 67.32542554 83.375 66.0625 C73.70677164 62.85143382 64.79037054 61.77073227 54.625 61.5625 C53.66094238 61.52801758 52.69688477 61.49353516 51.70361328 61.45800781 C47.43676914 61.43261438 44.67596371 61.6396548 40.87109375 63.66796875 C37.8097645 69.11956342 38.30750749 74.61124909 38.4375 80.75 C38.45482178 82.05807617 38.47214355 83.36615234 38.48999023 84.71386719 C38.9077274 101.87829423 42.79868649 120.18513761 53.0625 134.375 C56.41358178 140.04355067 54.47694784 146.63202836 53.6328125 152.828125 C49.32275081 185.3193593 59.38402326 218.35316873 78.89501953 244.3762207 C88.84338104 257.21588079 100.33060503 268.17590156 114 277 C114.66 277 115.32 277 116 277 C115.67386719 277.72703125 115.34773438 278.4540625 115.01171875 279.203125 C96.94704466 320.76786185 109.16331712 376.84852973 125.04248047 417.68066406 C125.37779785 418.48987305 125.71311523 419.29908203 126.05859375 420.1328125 C130.39825175 430.62302579 130.39825175 430.62302579 129.171875 434.86328125 C127.625 437.375 127.625 437.375 125.8125 439.67578125 C121.43140338 445.2937823 119.22707849 452.82860886 119.62109375 459.93359375 C120.42135606 464.29791088 122.13573412 467.60603756 125.71875 470.28515625 C130.06965306 472.85698242 133.67954892 474.135079 138.6875 474.0625 C139.89986328 474.04896484 139.89986328 474.04896484 141.13671875 474.03515625 C141.75160156 474.02355469 142.36648437 474.01195312 143 474 C142.87625 474.7425 142.7525 475.485 142.625 476.25 C142.75380072 479.18962356 142.75380072 479.18962356 145.1875 481.3125 C149.42667489 483.85803325 154.1056237 483.20393558 158.87890625 482.9453125 C162 483 162 483 164.36206055 483.97753906 C167.18396368 485.07130402 169.3131621 485.31095521 172.328125 485.4140625 C173.95814453 485.47267456 173.95814453 485.47267456 175.62109375 485.5324707 C176.81863281 485.56300537 178.01617187 485.59354004 179.25 485.625 C181.14685547 485.67756958 181.14685547 485.67756958 183.08203125 485.73120117 C187.72092183 485.84862698 192.36024974 485.92557852 197 486 C197.9794458 486.01673767 198.9588916 486.03347534 199.96801758 486.05072021 C206.53566692 486.160011 213.10287027 486.23816611 219.67126465 486.28509521 C221.88560235 486.3033254 224.09989622 486.32807737 226.31408691 486.35943604 C229.45960977 486.40139444 232.60423152 486.41685504 235.75 486.42578125 C236.6957489 486.44323898 237.6414978 486.46069672 238.61590576 486.47868347 C244.25966211 486.46034207 247.54399014 485.81372981 252 482 C253.92679217 479.70517721 253.92679217 479.70517721 255.375 477.25 C255.87773437 476.45078125 256.38046875 475.6515625 256.8984375 474.828125 C257.26195312 474.22484375 257.62546875 473.6215625 258 473 C258.99 474.485 258.99 474.485 260 476 C261.06402031 477.51376085 262.14936182 479.01265111 263.25 480.5 C263.81203125 481.2734375 264.3740625 482.046875 264.953125 482.84375 C269.22856835 487.34765216 273.89435484 488.39123119 279.93481445 488.68359375 C280.58594617 488.71682236 281.23707788 488.75005096 281.90794086 488.7842865 C288.950331 489.11065425 295.99454354 489.10802272 303.04296875 489.0625 C304.42767663 489.05807363 305.8123866 489.05426278 307.19709778 489.05102539 C311.52726269 489.03977264 315.85737041 489.0205248 320.1875 489 C325.22696383 488.97617672 330.26639499 488.95587538 335.30590248 488.94406128 C337.2930795 488.93769973 339.28023362 488.92512726 341.26737976 488.91235352 C347.99016335 488.89432857 354.58931333 489.138153 361.28227234 489.76623535 C365.19606876 490.10287955 369.09307409 490.1801223 373.01953125 490.203125 C373.80720383 490.20882507 374.5948764 490.21452515 375.40641785 490.22039795 C377.04721785 490.22972502 378.68803555 490.23633191 380.32885742 490.24023438 C382.82568326 490.25005184 385.32172155 490.28123401 387.81835938 490.3125 C389.42707854 490.31902247 391.03580347 490.3242759 392.64453125 490.328125 C393.74786552 490.3466452 393.74786552 490.3466452 394.87348938 490.36553955 C399.95827677 490.34378645 403.48554501 489.38530216 408 487 C426.4906332 464.60104469 433.56785522 421.77485337 432.78515625 393.71679688 C432.70516173 387.89537716 432.93400613 384.102584 436 379 C436.29777344 377.84371094 436.59554688 376.68742187 436.90234375 375.49609375 C438.15794112 371.4969491 439.87625061 369.26161703 442.5625 366.0625 C470.51167521 331.35537323 478.73048621 279.27248109 474.5 236.06640625 C473.89165104 230.99729249 473.03393689 225.99871853 472 221 C471.83371094 220.195625 471.66742188 219.39125 471.49609375 218.5625 C466.34765215 194.76525884 455.36324909 170.36073018 434.40234375 156.5078125 C427.98717574 152.56490335 421.38836683 149.52684288 414 148 C413.31550781 147.84789062 412.63101562 147.69578125 411.92578125 147.5390625 C405.2794594 146.36387789 399.56546348 147.6446608 393.6875 150.75 C386.45148136 156.80806212 384.67939544 164.86088455 383.67578125 173.9296875 C383.16846744 187.39974375 386.89044642 200.78068567 390.19921875 213.7265625 C390.39646042 214.50106247 390.59370209 215.27556244 390.79692078 216.0735321 C391.78657533 219.94860078 392.79211486 223.81836052 393.82592773 227.68188477 C400.6806405 253.76205794 398.88423689 279.4001877 397 306 C396.15179688 305.05640625 395.30359375 304.1128125 394.4296875 303.140625 C368.78032054 274.92742962 334.93773877 252.29980837 296 249 C296.70125 248.21238281 297.4025 247.42476562 298.125 246.61328125 C315.19514154 227.13948985 329.50525478 201.18539706 328.98046875 174.5078125 C328.77348836 160.79609058 333.64856262 151.78899404 340.33935547 140.02636719 C343.12599733 134.94797663 345.54177087 129.70909747 347.9375 124.4375 C348.39479492 123.43203125 348.85208984 122.4265625 349.32324219 121.390625 C357.74069381 102.93931761 357.74069381 102.93931761 359 83 C357.5803925 79.55831744 355.35262927 77.66192496 351.98046875 76.01171875 C342.87578664 72.64729156 333.50406269 72.87353261 323.9375 73.3125 C322.29346191 73.38307617 322.29346191 73.38307617 320.61621094 73.45507812 C306.30833733 73.95644251 306.30833733 73.95644251 292.3671875 76.8359375 C290 77 290 77 287.7109375 75.2265625 C286.94007813 74.36804688 286.16921875 73.50953125 285.375 72.625 C260.74600518 46.54296714 224.79370848 26.9659096 188.62426758 25.66308594 C170.46907272 25.35567137 154.23196653 30.18807375 138 38 Z " fill="#FFFFFF" transform="translate(0,0)"/>
<path d="M0 0 C33.19601242 0.07469265 63.27955455 16.95488223 86.93310547 39.38061523 C88.36976563 40.7205957 88.36976563 40.7205957 89.83544922 42.08764648 C113.44267873 64.54870851 132.82520684 100.41449676 134.13623047 133.40405273 C134.62656457 160.24599008 127.56283756 197.12256744 111.93310547 219.38061523 C106.61788173 221.28831804 100.49087909 220.57100389 94.93310547 220.56811523 C93.01111328 220.56908203 93.01111328 220.56908203 91.05029297 220.57006836 C80.84859743 220.51516687 70.72964552 219.96192417 60.56201172 219.09228516 C50.83150096 218.27240494 41.23312107 218.04854834 31.49560547 218.88061523 C21.65034609 219.64891864 11.80125359 219.55001003 1.93310547 219.38061523 C1.11261719 219.36804688 0.29212891 219.35547852 -0.55322266 219.3425293 C-2.7678842 219.29727558 -4.97868705 219.2214694 -7.19189453 219.13061523 C-8.43197266 219.08420898 -9.67205078 219.03780273 -10.94970703 218.98999023 C-14.6038644 218.27564368 -15.79589653 217.2704871 -18.06689453 214.38061523 C-20.26031181 210.32279327 -20.75109236 206.94193412 -20.06689453 202.38061523 C-18.39093214 199.94817107 -16.58551741 197.77608562 -14.59814453 195.59155273 C-12.95568783 193.49613202 -12.95568783 193.49613202 -12.49658203 191.12280273 C-13.40698322 186.7453943 -16.04825647 183.6671171 -18.69189453 180.13061523 C-19.79766529 178.60218785 -20.9031374 177.07354436 -22.00830078 175.54467773 C-23.69516586 173.24129084 -25.39068566 170.94515048 -27.09423828 168.65405273 C-34.46249839 158.34223833 -34.89391595 147.55296275 -33.06689453 135.38061523 C-29.10304963 114.55435986 -18.79180209 92.17888078 -1.31298828 79.36108398 C4.82593743 75.60087762 10.99753178 73.28449821 17.93310547 71.38061523 C17.93310547 69.73061523 17.93310547 68.08061523 17.93310547 66.38061523 C13.37230031 63.75252796 9.94526011 64.19062254 4.93310547 65.38061523 C-12.45285141 71.63395134 -24.65732922 87.27800031 -32.41992188 103.41357422 C-40.64387394 121.25080499 -47.54749948 142.62198988 -41.25439453 162.13061523 C-40.12751638 165.05570321 -38.9183336 167.64472356 -37.37939453 170.38061523 C-34.3088427 177.39901943 -34.57574457 184.29723865 -37.06689453 191.38061523 C-37.68253303 194.70573965 -38.25016348 198.02638874 -38.74658203 201.37084961 C-39.71713692 207.12249023 -41.52166631 211.85978123 -45.770401 216.0677948 C-48.9593535 217.89080103 -51.29997091 217.67627134 -54.95922852 217.56933594 C-55.64428467 217.55347946 -56.32934082 217.53762299 -57.03515625 217.52128601 C-59.2951411 217.46492193 -61.5537172 217.38615006 -63.81298828 217.30639648 C-65.38709963 217.26096837 -66.96124328 217.21664748 -68.53541565 217.17338562 C-71.83348084 217.07941517 -75.1309845 216.97485618 -78.4284668 216.86230469 C-82.64917074 216.71868732 -86.87014732 216.59695368 -91.09173489 216.48261738 C-94.34250749 216.39289676 -97.59293775 216.29374928 -100.84333992 216.1915493 C-102.39935176 216.14333369 -103.95543986 216.097516 -105.51159477 216.05416298 C-107.68987031 215.99161866 -109.86739833 215.91692744 -112.04516602 215.83886719 C-113.28330551 215.79873001 -114.52144501 215.75859283 -115.79710388 215.71723938 C-118.98442115 215.38910585 -121.23776711 214.86274448 -124.06689453 213.38061523 C-126.00439453 210.63061523 -126.00439453 210.63061523 -127.06689453 207.38061523 C-125.76286581 200.42579539 -121.41257985 195.12083062 -116.07861328 190.70092773 C-113.1877093 188.80359658 -110.20008822 187.85006771 -106.88720703 186.92358398 C-105.06489232 186.53710856 -105.06489232 186.53710856 -104.06689453 185.38061523 C-103.82260304 179.14381319 -104.43304834 173.11515582 -105.20361328 166.93139648 C-105.32493118 165.95575241 -105.44624908 164.98010834 -105.57124329 163.97489929 C-105.82962951 161.92476717 -106.09117168 159.87503058 -106.35571289 157.82568359 C-106.62203338 155.73311886 -106.8788365 153.63932138 -107.1262207 151.54443359 C-107.48539034 148.50374966 -107.8725028 145.46779099 -108.26611328 142.43139648 C-108.37154953 141.49797928 -108.47698578 140.56456207 -108.58561707 139.6028595 C-109.35772879 133.96268741 -110.37057641 131.01875768 -115.06689453 127.38061523 C-117.3208978 125.88063934 -119.56232916 124.45873132 -121.87939453 123.06811523 C-132.0685357 116.67773155 -137.96779762 109.5768555 -144.03173828 99.14331055 C-145.82636015 96.08737425 -147.70126619 93.08102172 -149.56689453 90.06811523 C-150.7335612 88.1722819 -151.90022786 86.27644857 -153.06689453 84.38061523 C-155.59105658 86.90477728 -155.39214805 87.87846319 -155.44189453 91.38061523 C-155.13314934 104.55374326 -146.78500095 115.29810116 -137.71044922 124.28076172 C-135.49650461 126.03936327 -133.76112101 127.08682494 -131.25048828 128.27368164 C-120.54281138 133.5182788 -120.54281138 133.5182788 -118.00952148 138.4312439 C-116.22040664 144.04608266 -115.91975357 149.84565836 -115.56689453 155.69311523 C-115.40566889 157.43659049 -115.23774435 159.1794598 -115.06298828 160.92163086 C-114.47556905 167.06564589 -113.96286899 173.20256899 -114.06689453 179.38061523 C-114.69595703 179.63713867 -115.32501953 179.89366211 -115.97314453 180.15795898 C-124.75122785 184.08430047 -130.66071413 189.56543251 -134.56689453 198.44311523 C-136.16590556 202.92455404 -136.41686309 206.65603974 -136.06689453 211.38061523 C-134.74689453 212.04061523 -133.42689453 212.70061523 -132.06689453 213.38061523 C-135.69689453 213.05061523 -139.32689453 212.72061523 -143.06689453 212.38061523 C-143.72689453 210.07061523 -144.38689453 207.76061523 -145.06689453 205.38061523 C-145.75396484 205.25944336 -146.44103516 205.13827148 -147.14892578 205.01342773 C-148.50050781 204.76206055 -148.50050781 204.76206055 -149.87939453 204.50561523 C-150.77271484 204.34319336 -151.66603516 204.18077148 -152.58642578 204.01342773 C-155.06689453 203.38061523 -155.06689453 203.38061523 -158.06689453 201.38061523 C-159.36829219 193.716829 -156.1247519 186.81509189 -152.06689453 180.38061523 C-150.43170207 179.32993765 -148.76834113 178.32022007 -147.06689453 177.38061523 C-145.66511398 174.31094924 -145.66511398 174.31094924 -147.50830078 171.22045898 C-148.21077973 169.91721366 -148.91818128 168.61661466 -149.62939453 167.31811523 C-161.4691069 144.50777851 -166.93821524 117.73065629 -170.06689453 92.38061523 C-170.1684082 91.60556641 -170.26992187 90.83051758 -170.37451172 90.03198242 C-173.27262096 67.47792722 -174.30563007 43.95825593 -166.06689453 22.38061523 C-161.7250597 23.76658672 -157.5733305 25.41315809 -153.37939453 27.19311523 C-147.3856732 29.65874195 -141.33506009 31.55260207 -135.06689453 33.19311523 C-134.27839111 33.39976807 -133.4898877 33.6064209 -132.67749023 33.81933594 C-113.45031 38.67872846 -89.26486683 38.5124703 -70.06689453 33.38061523 C-68.91785645 33.09057617 -68.91785645 33.09057617 -67.74560547 32.79467773 C-46.58109083 27.3674496 -18.59357501 0.35915392 0 0 Z " fill="#CCBAAA" transform="translate(289.06689453125,259.619384765625)"/>
<path d="M0 0 C4.6825165 3.70414813 9.19002198 7.60603676 13.64257812 11.58203125 C14.20235352 12.07026367 14.76212891 12.55849609 15.33886719 13.06152344 C17.00976562 14.58984375 17.00976562 14.58984375 18.64160156 16.37597656 C20.37062921 18.15547203 21.79930413 19.4547268 24.00976562 20.58984375 C26.60187564 20.55343931 28.75187297 20.01128895 31.24804688 19.31738281 C36.23663589 18.0032036 41.3796563 17.84416092 46.50976562 17.46484375 C47.57324219 17.37847656 48.63671875 17.29210937 49.73242188 17.203125 C78.08747688 15.01126185 78.08747688 15.01126185 86.69726562 20.46484375 C91.72697874 25.08674229 91.72697874 25.08674229 92.44335938 28.89453125 C92.46339694 42.07924653 87.32197434 53.92101027 81.88476562 65.71484375 C81.31041153 66.97687815 80.73644204 68.23908764 80.1628418 69.50146484 C68.05792251 96.01760842 68.05792251 96.01760842 63.00976562 103.58984375 C62.77790134 106.4837448 62.64216096 109.31705171 62.57226562 112.21484375 C61.33777104 143.07720836 49.96726229 169.93414088 29.00976562 192.58984375 C30.18410156 192.73679688 31.3584375 192.88375 32.56835938 193.03515625 C50.28334325 195.42867212 65.32502973 201.1684278 81.00976562 209.58984375 C81.6141748 209.90679199 82.21858398 210.22374023 82.84130859 210.55029297 C101.22606662 220.22674542 116.31300364 234.13112426 130.00976562 249.58984375 C132.17560141 219.01469389 132.20378497 191.61019094 124.50976562 161.71484375 C112.80984216 115.75784536 112.80984216 115.75784536 121.33398438 100.16796875 C125.17191198 94.6477999 128.9645337 92.35115173 135.50976562 90.71484375 C147.97223104 89.62497035 161.19852984 95.31602781 170.86523438 102.80078125 C173.33395139 104.98938665 175.67949087 107.2553703 178.00976562 109.58984375 C178.63238281 110.1415625 179.255 110.69328125 179.89648438 111.26171875 C199.94649633 129.46442623 206.93036004 163.26022743 208.17822266 189.07470703 C209.34883011 226.25496304 202.83233675 262.70528813 185.00976562 295.58984375 C184.50574219 296.52570313 184.00171875 297.4615625 183.48242188 298.42578125 C180.80813465 303.12245188 177.76036863 307.15701677 174.25976562 311.27734375 C170.73826926 315.47128666 168.93730362 318.23073531 168.00976562 323.58984375 C167.666875 324.59789062 167.32398438 325.6059375 166.97070312 326.64453125 C165.58915365 331.39841112 165.92543461 336.06137082 166.07226562 340.96484375 C166.39386383 369.71950637 157.09382677 404.96631928 142.00976562 429.58984375 C137.2385609 434.02839476 132.18844601 433.73947771 125.94726562 433.72265625 C124.76656494 433.72409134 124.76656494 433.72409134 123.56201172 433.72555542 C121.89436768 433.7262353 120.22672097 433.72439439 118.55908203 433.72021484 C116.04648633 433.71492112 113.53407411 433.72013644 111.02148438 433.7265625 C109.39257774 433.72590057 107.76367122 433.72461705 106.13476562 433.72265625 C105.03249634 433.7256926 105.03249634 433.7256926 103.90795898 433.72879028 C99.69228333 433.71051052 95.55267594 433.47949307 91.35473633 433.08544922 C84.35171076 432.46592126 77.39103836 432.48218059 70.36523438 432.52734375 C68.98342566 432.53176734 67.60161486 432.53557898 66.21980286 432.53881836 C61.14924632 432.55201525 56.07875443 432.5761855 51.00823975 432.60021973 C46.70726668 432.62018789 42.40631844 432.63572692 38.10531044 432.64578247 C36.12326406 432.65211829 34.14124063 432.66468926 32.15922546 432.67749023 C25.74739953 432.6945505 19.34793721 432.60021415 12.94458008 432.2734375 C11.16432182 432.18727173 11.16432182 432.18727173 9.34809875 432.09936523 C4.65831138 431.38357465 1.23904703 429.88481195 -2.03710938 426.43359375 C-2.59914063 425.66015625 -3.16117188 424.88671875 -3.74023438 424.08984375 C-4.31257812 423.31640625 -4.88492188 422.54296875 -5.47460938 421.74609375 C-6.67085634 420.04421662 -7.83632562 418.32070688 -8.99023438 416.58984375 C-9.35375 417.193125 -9.71726562 417.79640625 -10.09179688 418.41796875 C-10.59453125 419.2171875 -11.09726563 420.01640625 -11.61523438 420.83984375 C-12.1025 421.62875 -12.58976563 422.41765625 -13.09179688 423.23046875 C-15.8702586 426.68353641 -18.69677296 429.22372163 -23.21524048 429.94503784 C-25.89883654 430.06933134 -28.55418251 430.06520753 -31.24023438 430.015625 C-32.23927292 430.01279007 -33.23831146 430.00995514 -34.2676239 430.0070343 C-37.50899178 429.99228264 -40.74917018 429.94824179 -43.99023438 429.90234375 C-46.21393892 429.88404199 -48.43765381 429.86695636 -50.66137695 429.85107422 C-57.10496352 429.79663009 -63.54738831 429.70006516 -69.99023438 429.58984375 C-71.31084869 429.56860443 -71.31084869 429.56860443 -72.65814209 429.54693604 C-77.66571808 429.46478792 -82.67141065 429.35408613 -87.67773438 429.21484375 C-88.86689453 429.18430908 -90.05605469 429.15377441 -91.28125 429.12231445 C-96.62120805 428.92972971 -100.93995842 428.43732101 -105.99023438 426.58984375 C-108.9918588 426.49612754 -108.9918588 426.49612754 -111.99023438 426.71484375 C-118.53041501 426.82059294 -118.53041501 426.82059294 -121.74023438 424.90234375 C-123.99023438 422.58984375 -123.99023438 422.58984375 -124.36523438 419.83984375 C-124.24148437 419.09734375 -124.11773437 418.35484375 -123.99023438 417.58984375 C-125.28960937 417.67234375 -126.58898437 417.75484375 -127.92773438 417.83984375 C-133.27805263 417.83140476 -137.45727914 416.40590813 -141.99023438 413.58984375 C-146.18220985 409.29306888 -147.45761388 405.48514325 -147.40820312 399.45703125 C-146.46524914 392.98854319 -143.56256369 385.29772003 -139.7956543 379.86791992 C-138.17157254 377.52068488 -136.87653805 375.56719015 -137.21630859 372.64648438 C-137.94633148 370.4046902 -138.83443554 368.30200386 -139.80273438 366.15234375 C-140.49081091 364.46250382 -141.17147905 362.76963322 -141.84570312 361.07421875 C-142.20325684 360.18283203 -142.56081055 359.29144531 -142.92919922 358.37304688 C-158.26578714 318.14361699 -169.87609136 263.3798917 -151.99023438 222.58984375 C-151.66023438 221.92984375 -151.33023438 221.26984375 -150.99023438 220.58984375 C-151.68117188 220.35910156 -152.37210937 220.12835938 -153.08398438 219.890625 C-156.61502187 218.31020096 -159.48417578 216.17006705 -162.49023438 213.77734375 C-163.09971924 213.29233398 -163.7092041 212.80732422 -164.3371582 212.30761719 C-191.84119897 189.99764015 -209.71274891 158.98579437 -213.81152344 123.65332031 C-214.13988212 119.86194383 -214.17773438 116.08105251 -214.17773438 112.27734375 C-214.18417969 111.41141602 -214.190625 110.54548828 -214.19726562 109.65332031 C-214.18198083 104.38579743 -213.71639991 99.40911449 -212.86474609 94.21655273 C-211.18665668 83.56713914 -213.48872466 77.50902661 -218.94921875 68.40820312 C-226.57831228 55.08233807 -228.52148553 39.59821118 -228.49023438 24.52734375 C-228.51859375 23.24923828 -228.54695313 21.97113281 -228.57617188 20.65429688 C-228.59504861 11.65481561 -228.59504861 11.65481561 -226.09570312 7.25390625 C-221.61572567 4.85331456 -217.81490546 4.88463161 -212.80273438 5.02734375 C-211.34855103 5.04897583 -211.34855103 5.04897583 -209.86499023 5.07104492 C-199.42094733 5.38292217 -188.78192115 6.95155172 -179.17382812 11.2265625 C-176.10780476 12.78666726 -176.10780476 12.78666726 -172.99023438 12.58984375 C-171.60142781 11.27587779 -171.60142781 11.27587779 -170.33007812 9.5078125 C-166.86735495 5.27535902 -162.94973641 2.12570295 -158.55273438 -1.09765625 C-157.32731934 -1.99677734 -157.32731934 -1.99677734 -156.07714844 -2.9140625 C-146.31353941 -9.87077152 -135.80548203 -15.28876407 -124.99023438 -20.41015625 C-124.27883301 -20.75046875 -123.56743164 -21.09078125 -122.83447266 -21.44140625 C-80.85192007 -41.11310976 -35.06661848 -26.83774307 0 0 Z M-168.99023438 23.58984375 C-169.65023437 24.24984375 -170.31023437 24.90984375 -170.99023438 25.58984375 C-171.57289063 25.3475 -172.15554687 25.10515625 -172.75585938 24.85546875 C-187.32769002 18.89843107 -201.06079344 14.54249519 -216.99023438 15.58984375 C-218.69321887 17.29282824 -218.15477143 19.43202175 -218.1809082 21.70507812 C-218.15268094 40.69117149 -214.65606424 63.59527962 -200.86523438 77.90234375 C-198.99534643 80.42578476 -198.97152867 81.43396291 -199.35351562 84.6171875 C-199.77755824 86.53241313 -200.20315697 88.44742092 -200.65429688 90.35644531 C-204.09825764 106.00126709 -203.46955314 124.21927815 -198.99023438 139.58984375 C-198.64992188 140.80027344 -198.30960938 142.01070312 -197.95898438 143.2578125 C-188.17482894 175.1554814 -166.08810608 200.77521284 -136.88134766 216.6171875 C-110.31445813 230.28133517 -79.91354549 232.89748536 -50.99023438 226.58984375 C-50.29687988 226.43950684 -49.60352539 226.28916992 -48.88916016 226.13427734 C-30.11300303 221.83019753 -11.8890793 212.74923811 3.00976562 200.58984375 C3.5954834 200.11933594 4.18120117 199.64882813 4.78466797 199.1640625 C16.15521398 189.96814479 26.08047062 179.97232102 34.00976562 167.58984375 C34.88761719 166.23826172 34.88761719 166.23826172 35.78320312 164.859375 C44.21184368 151.22264432 49.84945567 135.49821577 50.19726562 119.40234375 C50.23436646 117.73836548 50.23436646 117.73836548 50.2722168 116.04077148 C50.30499254 113.82177352 50.30885445 111.60211573 50.28051758 109.38305664 C50.34127371 103.04416651 50.90214356 99.64032839 55.4699707 95.1496582 C57.91291213 92.67495505 59.19422804 89.76312491 60.69726562 86.65234375 C61.02122314 85.98340088 61.34518066 85.31445801 61.67895508 84.62524414 C62.80299714 82.28643134 63.90661322 79.9385786 65.00976562 77.58984375 C65.45578125 76.65237305 65.90179688 75.71490234 66.36132812 74.74902344 C77.00111354 53.54405137 77.00111354 53.54405137 82.00976562 30.58984375 C76.30587004 26.78724669 70.02103804 27.39743688 63.38476562 27.40234375 C61.85964355 27.4024646 61.85964355 27.4024646 60.30371094 27.40258789 C51.45039734 27.46819357 42.78368483 28.24878308 34.00732422 29.35058594 C30.39360546 29.78341952 26.76644182 30.05841978 23.13867188 30.34375 C21.02563192 30.58800966 19.05839689 31.02518684 17.00976562 31.58984375 C16.28273438 30.73712891 16.28273438 30.73712891 15.54101562 29.8671875 C14.53554688 28.70896484 14.53554688 28.70896484 13.50976562 27.52734375 C12.86007812 26.77324219 12.21039063 26.01914063 11.54101562 25.2421875 C-5.83096512 7.03913978 -28.90033271 -8.07509004 -52.99023438 -15.41015625 C-54.58351562 -15.91482422 -54.58351562 -15.91482422 -56.20898438 -16.4296875 C-98.40389925 -27.64411269 -140.62219373 -6.54506447 -168.99023438 23.58984375 Z M9.98632812 208.46875 C-7.84716634 227.60627469 -43.17556385 238.45910548 -68.4050293 239.7668457 C-93.33703147 240.19532448 -116.80507165 238.76379368 -139.34179688 226.8125 C-142.00752616 225.21519455 -142.00752616 225.21519455 -144.99023438 226.58984375 C-145.86031933 229.30510887 -146.53117676 231.87456575 -147.11523438 234.65234375 C-147.28410156 235.39162109 -147.45296875 236.13089844 -147.62695312 236.89257812 C-156.75024697 277.94740043 -147.9163868 338.78799756 -125.49023438 374.71484375 C-123.99023438 377.58984375 -123.99023438 377.58984375 -124.49023438 379.90234375 C-125.99023437 381.58984375 -125.99023437 381.58984375 -127.88085938 382.3125 C-132.54394952 385.13626015 -134.23214949 391.65456626 -135.99023438 396.58984375 C-136.41232497 399.49710043 -136.33558651 401.65435063 -135.99023438 404.58984375 C-131.36583013 406.66610688 -126.88936928 408.29007327 -121.99023438 409.58984375 C-121.66023438 411.56984375 -121.33023438 413.54984375 -120.99023438 415.58984375 C-117.36023438 415.91984375 -113.73023438 416.24984375 -109.99023438 416.58984375 C-111.31023437 415.92984375 -112.63023437 415.26984375 -113.99023438 414.58984375 C-114.65490222 405.61682787 -112.07698078 398.73781204 -106.36523438 391.77734375 C-102.18088 387.3245591 -97.55131604 384.95019945 -91.99023438 382.58984375 C-92.05082031 381.90414307 -92.11140625 381.21844238 -92.17382812 380.51196289 C-92.56520041 375.96564694 -92.94882066 371.42880186 -93.17382812 366.87060547 C-93.3780741 351.31220219 -93.3780741 351.31220219 -98.69873047 337.23974609 C-102.64407062 333.73838772 -107.18510492 331.61654686 -111.99511719 329.5390625 C-121.47934728 325.02674157 -128.44888391 312.98022986 -132.19726562 303.5546875 C-133.00693935 300.52738525 -133.25751128 297.96696268 -133.24023438 294.83984375 C-133.24539062 293.89625 -133.25054687 292.95265625 -133.25585938 291.98046875 C-132.99023438 289.58984375 -132.99023438 289.58984375 -130.99023438 287.58984375 C-129.78114451 289.54771008 -128.57301001 291.50616641 -127.36523438 293.46484375 C-126.99841553 294.05692627 -126.63159668 294.64900879 -126.25366211 295.2590332 C-124.11139532 298.7269532 -122.0613105 302.22980225 -120.05273438 305.77734375 C-113.93428251 315.9362827 -105.69636783 323.24339652 -95.42773438 329.03515625 C-94.62335938 329.50695312 -93.81898438 329.97875 -92.99023438 330.46484375 C-92.26835937 330.85414063 -91.54648438 331.2434375 -90.80273438 331.64453125 C-86.42679846 336.34111765 -86.50889585 345.30499935 -85.70117188 351.5 C-85.53894638 352.71761269 -85.53894638 352.71761269 -85.3734436 353.95982361 C-85.14800021 355.66118383 -84.92458195 357.36281356 -84.703125 359.06469727 C-84.36551425 361.6502004 -84.0180973 364.23426025 -83.66992188 366.81835938 C-83.4505787 368.48299486 -83.23180923 370.14770607 -83.01367188 371.8125 C-82.91057709 372.57417984 -82.8074823 373.33585968 -82.70126343 374.12062073 C-82.07829353 378.98429454 -81.73110685 383.68550388 -81.99023438 388.58984375 C-84.31959015 390.91919953 -85.52139497 391.05713767 -88.67773438 391.77734375 C-95.88713799 393.85797971 -99.86860821 398.26326117 -103.55273438 404.65234375 C-104.93876004 407.69570224 -105.01623212 408.4520557 -104.36523438 411.90234375 C-102.59826001 415.82848358 -102.59826001 415.82848358 -99.30075073 418.25183105 C-96.2055462 418.70463825 -93.14783072 418.86218045 -90.02197266 418.99804688 C-89.32876923 419.02894409 -88.6355658 419.05984131 -87.9213562 419.0916748 C-80.7014045 419.40542087 -73.47883762 419.65726015 -66.25634766 419.90429688 C-62.83147362 420.02349089 -59.40825386 420.16234272 -55.98486328 420.31835938 C-51.84425941 420.50685753 -47.70373584 420.66011073 -43.56084824 420.78855896 C-41.98557018 420.84329527 -40.4106691 420.91035865 -38.83646011 420.99012756 C-30.41661847 421.71425401 -30.41661847 421.71425401 -22.69787598 419.11347961 C-19.69848535 415.73193852 -18.13981567 412.22054595 -17.24023438 407.77734375 C-16.91152344 406.23433594 -16.91152344 406.23433594 -16.57617188 404.66015625 C-16.3828125 403.64695312 -16.18945312 402.63375 -15.99023438 401.58984375 C-15.796875 400.65914062 -15.60351562 399.7284375 -15.40429688 398.76953125 C-14.91206964 396.37973237 -14.44715324 393.98659088 -13.99023438 391.58984375 C-13.79300781 390.8009375 -13.59578125 390.01203125 -13.39257812 389.19921875 C-12.27270905 381.93637856 -14.20148831 373.81191734 -17.99023438 367.56640625 C-24.70786106 354.28859726 -21.36230572 336.13340311 -16.99023438 322.58984375 C-12.60720641 310.18818146 -7.20604436 298.89291357 1.00976562 288.58984375 C1.63238281 287.77515625 2.255 286.96046875 2.89648438 286.12109375 C9.68740866 277.80683844 19.525951 270.34874234 30.00976562 267.58984375 C34.02636275 267.20363249 36.56016914 267.46701514 40.00976562 269.58984375 C40.00976562 271.23984375 40.00976562 272.88984375 40.00976562 274.58984375 C38.64851563 274.89921875 38.64851563 274.89921875 37.25976562 275.21484375 C21.21234244 279.91560408 8.94702167 291.08804236 0.90673828 305.57763672 C-8.14901978 322.94290998 -15.51203871 343.15010856 -10.04467773 362.66552734 C-8.32639416 367.43088984 -5.58846426 371.27509028 -2.61523438 375.33984375 C-2.050625 376.13777344 -1.48601562 376.93570313 -0.90429688 377.7578125 C1.19942004 380.72346898 3.30125583 383.68168359 5.53808594 386.54882812 C7.48185644 389.08298981 8.91052272 391.09216975 9.54101562 394.25390625 C8.8572399 397.26050835 7.57599993 398.69362589 5.50976562 400.96484375 C3.06679939 403.96280434 2.06927637 405.28146989 1.32226562 409.15234375 C2.16788071 413.38041918 3.60864172 416.99692112 6.00976562 420.58984375 C18.63847228 426.90419708 42.84941348 423.00610727 56.62939453 421.82861328 C66.47231075 421.13336757 76.19885654 421.75148668 86.00976562 422.58984375 C96.33734261 423.3956657 106.59200966 423.80848003 116.94726562 423.83984375 C118.17896484 423.84886719 119.41066406 423.85789062 120.6796875 423.8671875 C122.40348633 423.86138672 122.40348633 423.86138672 124.16210938 423.85546875 C125.17265381 423.85321289 126.18319824 423.85095703 127.22436523 423.84863281 C130.2128407 423.57097623 132.34567261 422.96422347 135.00976562 421.58984375 C136.39308935 419.37652579 137.35715938 417.4805532 138.32226562 415.08984375 C138.75611572 414.05380005 138.75611572 414.05380005 139.19873047 412.99682617 C155.56375412 372.45917169 161.74741188 335.18437182 144.96923828 294.03808594 C140.14561562 282.77190812 134.2808124 272.4483351 127.00976562 262.58984375 C126.3265625 261.66300781 125.64335937 260.73617187 124.93945312 259.78125 C103.38455317 232.20245215 70.54161167 208.13674665 35.00976562 203.58984375 C21.22703925 201.88537733 21.22703925 201.88537733 9.98632812 208.46875 Z " fill="#000000" transform="translate(266.990234375,56.41015625)"/>
<path d="M0 0 C17.11004491 6.02925392 28.88753845 18.29915513 36.93701172 34.26025391 C56.45290775 75.06812913 52.49484219 123.85667552 38.27709961 165.62158203 C32.61775925 181.49745587 25.13369368 196.36838217 12.84375 208.15625 C12.58271484 207.48271484 12.32167969 206.80917969 12.05273438 206.11523438 C3.17709257 182.71102106 3.17709257 182.71102106 -9.34375 161.15625 C-12.20795251 156.79514528 -12.20795251 156.79514528 -11.9921875 154.12890625 C-11.21875 152.21875 -11.21875 152.21875 -10.19921875 150.296875 C-4.55370417 138.70982636 -5.96098512 121.66230212 -5.90625 109.09375 C-5.885625 107.93681641 -5.865 106.77988281 -5.84375 105.58789062 C-5.76572146 87.65108061 -9.78204474 70.48182968 -14.28125 53.21875 C-14.96614683 50.55190577 -15.64828258 47.88436828 -16.32980347 45.21665955 C-16.74900702 43.57989053 -17.17066871 41.94374834 -17.59524536 40.30836487 C-19.49721953 32.95909687 -20.36422635 26.31977827 -20.40625 18.71875 C-20.426875 17.78998047 -20.4475 16.86121094 -20.46875 15.90429688 C-20.49906505 10.58021659 -20.26865992 6.69167617 -17.15625 2.15625 C-12.20000583 -2.6276912 -6.26424997 -1.67460148 0 0 Z " fill="#CCBAAA" transform="translate(415.15625,158.84375)"/>
<path d="M0 0 C14.04446443 5.08753559 20.88306774 23.01097849 26.82666016 35.67773438 C33.95045458 51.42738487 37.74352932 68.08652243 41 85 C41.24878906 86.25683594 41.49757813 87.51367188 41.75390625 88.80859375 C45.4022862 110.87746546 44.15250836 133.71129089 36.1875 154.625 C32.83682206 163.52233865 34.66239903 169.59211438 37.4765625 178.421875 C38.08331568 181.41036079 37.99468299 183.11820815 37 186 C35.69846842 187.36439404 34.36767967 188.70192147 33 190 C32.73896484 189.32646484 32.47792969 188.65292969 32.20898438 187.95898438 C23.33334257 164.55477106 23.33334257 164.55477106 10.8125 143 C7.94829749 138.63889528 7.94829749 138.63889528 8.1640625 135.97265625 C8.9375 134.0625 8.9375 134.0625 9.95703125 132.140625 C15.60254583 120.55357636 14.19526488 103.50605212 14.25 90.9375 C14.270625 89.78056641 14.29125 88.62363281 14.3125 87.43164062 C14.39052854 69.49483061 10.37420526 52.32557968 5.875 35.0625 C5.19010317 32.39565577 4.50796742 29.72811828 3.82644653 27.06040955 C3.40724298 25.42364053 2.98558129 23.78749834 2.56100464 22.15211487 C1.07767254 16.42048856 -0.13430057 11.14694747 -0.0625 5.1875 C-0.05347656 4.21167969 -0.04445313 3.23585937 -0.03515625 2.23046875 C-0.02355469 1.49441406 -0.01195312 0.75835937 0 0 Z " fill="#96806E" transform="translate(395,177)"/>
<path d="M0 0 C1.21816406 0.03480469 1.21816406 0.03480469 2.4609375 0.0703125 C3.68683594 0.09738281 3.68683594 0.09738281 4.9375 0.125 C5.56398438 0.14820313 6.19046875 0.17140625 6.8359375 0.1953125 C-0.80842059 9.33125266 -9.04461416 16.74916178 -18.51269531 23.94091797 C-19.89004205 24.98716391 -21.25864074 26.04491371 -22.625 27.10546875 C-33.34142672 35.05818542 -45.72605991 41.35988635 -58.3515625 45.6328125 C-59.00189453 45.85525635 -59.65222656 46.0777002 -60.32226562 46.30688477 C-74.08134006 50.65088798 -87.64526869 51.70964204 -101.9765625 51.5703125 C-102.80967957 51.56632446 -103.64279663 51.56233643 -104.50115967 51.55822754 C-123.7544081 51.45010735 -145.61664102 51.15716717 -161.1640625 38.1953125 C-163.63266299 35.58150021 -164.18810007 34.23533781 -164.10546875 30.66015625 C-163.87610156 28.15123208 -163.56484087 25.68206984 -163.1640625 23.1953125 C-159.03266166 21.81817889 -156.75361881 23.53741455 -153.0390625 25.3203125 C-147.26388766 27.96495068 -141.51066833 30.21797049 -135.4140625 32.0078125 C-134.76679199 32.20197754 -134.11952148 32.39614258 -133.45263672 32.59619141 C-122.20930876 35.78576813 -111.12729498 36.57179743 -99.4765625 36.5078125 C-98.76963257 36.50565735 -98.06270264 36.5035022 -97.33435059 36.50128174 C-86.66570847 36.4491175 -76.52081389 35.96380004 -66.1640625 33.1953125 C-65.01502441 32.90527344 -65.01502441 32.90527344 -63.84277344 32.609375 C-43.45220688 27.3806108 -17.52152105 1.58136472 0 0 Z " fill="#96806E" transform="translate(285.1640625,259.8046875)"/>
<path d="M0 0 C2.13770672 2.13770672 2.93517623 3.83132291 4.1875 6.5625 C6.84264886 11.96623405 10.086001 16.4436598 14 21 C14.47566406 21.58265625 14.95132813 22.1653125 15.44140625 22.765625 C18.24410589 25.89762355 20.9742524 28.06622178 24.77368164 29.85644531 C35.51679388 35.12644037 35.51679388 35.12644037 38.05929565 40.05227661 C39.84768745 45.66606699 40.14721273 51.46623254 40.5 57.3125 C40.66122564 59.05597526 40.82915018 60.79884457 41.00390625 62.54101562 C41.59132548 68.68503066 42.10402554 74.82195376 42 81 C41.3709375 81.25652344 40.741875 81.51304687 40.09375 81.77734375 C31.31566668 85.70368523 25.4061804 91.18481728 21.5 100.0625 C19.90098897 104.5439388 19.65003145 108.27542451 20 113 C21.32 113.66 22.64 114.32 24 115 C20.37 114.67 16.74 114.34 13 114 C12.34 111.69 11.68 109.38 11 107 C9.96939453 106.81824219 9.96939453 106.81824219 8.91796875 106.6328125 C8.01691406 106.46523438 7.11585938 106.29765625 6.1875 106.125 C5.29417969 105.96257812 4.40085938 105.80015625 3.48046875 105.6328125 C1 105 1 105 -2 103 C-3.30139766 95.33621377 -0.05785737 88.43447666 4 82 C5.63519247 80.94932242 7.2985534 79.93960484 9 79 C10.09658936 75.71023192 9.79953138 74.28696233 9 71 C12.465 70.01 12.465 70.01 16 69 C17.14521813 54.10629143 16.40585992 44.25757741 8.11132812 31.79248047 C2.17331755 22.2149599 0.95425201 10.9667768 0 0 Z " fill="#96806E" transform="translate(133,358)"/>
<path d="M0 0 C0.33 0.66 0.66 1.32 1 2 C-0.0018765 4.54252647 -1.06666383 7.01057553 -2.1875 9.5 C-9.53508102 26.7005607 -14.03895585 46.56111461 -7.0859375 64.609375 C-5.97728796 67.14089448 -5.97728796 67.14089448 -4.3125 70 C-1.24194816 77.0184042 -1.50885004 83.91662341 -4 91 C-4.6156385 94.32512442 -5.18326895 97.64577351 -5.6796875 100.99023438 C-6.67618534 106.89561644 -8.58256508 111.91831993 -13.25 115.9375 C-13.8275 116.288125 -14.405 116.63875 -15 117 C-15.99 116.34 -16.98 115.68 -18 115 C-17.505 113.783125 -17.01 112.56625 -16.5 111.3125 C-14.42142412 104.97684083 -13.12107165 97.10829175 -15.984375 90.84765625 C-16.83814219 89.60126156 -17.71936307 88.37329362 -18.625 87.1640625 C-23.42207057 79.61412756 -25.10403382 69.20595402 -25.25 60.375 C-25.27578125 59.45460938 -25.3015625 58.53421875 -25.328125 57.5859375 C-24.39751247 47.41567197 -20.70249835 38.17577381 -16.6875 28.875 C-15.99624023 27.22177734 -15.99624023 27.22177734 -15.29101562 25.53515625 C-11.3088272 16.197229 -6.79362799 7.59287834 0 0 Z " fill="#96806E" transform="translate(256,360)"/>
<path d="M0 0 C1.24233398 0.32000977 1.24233398 0.32000977 2.50976562 0.64648438 C12.5263964 3.33309071 12.5263964 3.33309071 15.6875 7.5 C16.62225636 10.77164725 16.38180693 12.41667881 15.3125 15.6875 C9.57476283 24.11917474 0.63324359 32.14848235 -9.43359375 34.52734375 C-11.6875 34.6875 -11.6875 34.6875 -15 33.5 C-20.29391821 27.95985303 -23.26861454 21.36706671 -23.6875 13.6875 C-23.749375 12.9553125 -23.81125 12.223125 -23.875 11.46875 C-24.16604145 6.01172281 -23.35106711 2.99757896 -19.6875 -1.3125 C-13.71974251 -4.29637874 -6.04847695 -1.66607613 0 0 Z " fill="#000000" transform="translate(242.6875,164.3125)"/>
<path d="M0 0 C2.04501205 3.00144846 1.62290743 5.30401803 1.26953125 8.86328125 C0.47961268 11.6651648 -0.59638225 14.27476113 -1.79296875 16.92578125 C-2.11023926 17.630979 -2.42750977 18.33617676 -2.75439453 19.06274414 C-5.13590031 24.10063537 -7.4501235 28.46908744 -12.73046875 30.86328125 C-17.27837292 32.28898151 -20.46479089 32.42017951 -24.85546875 30.48828125 C-32.87073325 23.16999627 -37.17820446 15.82181132 -38.04296875 4.92578125 C-37.73046875 1.86328125 -37.73046875 1.86328125 -35.73046875 -1.13671875 C-26.07959812 -4.29821085 -8.91359757 -5.85520743 0 0 Z " fill="#000000" transform="translate(156.73046875,156.13671875)"/>
<path d="M0 0 C5.65333333 3.30666667 5.65333333 3.30666667 7 6 C7.70153846 13.13230769 7.70153846 13.13230769 4.625 16.9375 C-0.08187766 20.63576102 -4.14383361 20.64556165 -10 20 C-13.85879629 17.99021027 -14.75982278 16.57433682 -16.4375 12.5625 C-17.04265596 8.7298456 -17.07178459 7.24279327 -15 4 C-12.625 2.3125 -12.625 2.3125 -10 1 C-9.360625 0.5875 -8.72125 0.175 -8.0625 -0.25 C-5.00901651 -1.36035763 -3.10893842 -0.87050276 0 0 Z " fill="#000000" transform="translate(186,186)"/>
<path d="M0 0 C5.50808397 0.59015185 10.64878069 1.56663769 16 3 C15.1875 4.9375 15.1875 4.9375 14 7 C10.52487282 8.15837573 8.86329714 7.77265943 5.3125 7.0625 C4.31863281 6.86785156 3.32476562 6.67320312 2.30078125 6.47265625 C1.16189453 6.23869141 1.16189453 6.23869141 0 6 C0 4.02 0 2.04 0 0 Z " fill="#FFFFFF" transform="translate(230,173)"/>
<path d="M0 0 C0 0.99 0 1.98 0 3 C-4.95 3.66 -9.9 4.32 -15 5 C-15.66 3.35 -16.32 1.7 -17 0 C-11.06975197 -0.97040422 -5.93609666 -0.89316269 0 0 Z " fill="#FFFFFF" transform="translate(146,164)"/>
</svg>
